<?xml version="1.0" standalone="no"?>
<!DOCTYPE svg PUBLIC "-//W3C//DTD SVG 20010904//EN"
 "http://www.w3.org/TR/2001/REC-SVG-20010904/DTD/svg10.dtd">
<svg version="1.0" xmlns="http://www.w3.org/2000/svg"
 width="456.000000pt" height="456.000000pt" viewBox="0 0 456.000000 456.000000"
 preserveAspectRatio="xMidYMid meet">

<g transform="translate(0.000000,456.000000) scale(0.100000,-0.100000)"
fill="#000000" stroke="none">
<path d="M0 4535 c0 -23 2 -24 20 -15 26 14 26 40 0 40 -15 0 -20 -7 -20 -25z"/>
<path d="M60 4542 c0 -18 64 -62 89 -62 21 0 91 50 91 65 0 12 -17 15 -90 15
-80 0 -90 -2 -90 -18z"/>
<path d="M260 4542 c0 -10 18 -27 45 -42 l45 -25 45 25 c27 15 45 32 45 42 0
16 -11 18 -90 18 -79 0 -90 -2 -90 -18z"/>
<path d="M460 4545 c0 -15 70 -65 91 -65 25 0 89 44 89 62 0 16 -10 18 -90 18
-73 0 -90 -3 -90 -15z"/>
<path d="M660 4545 c0 -8 21 -26 46 -41 l47 -28 46 25 c25 13 47 32 49 42 3
15 -7 17 -92 17 -77 0 -96 -3 -96 -15z"/>
<path d="M870 4542 c0 -10 18 -27 44 -42 l44 -24 46 25 c28 14 46 31 46 41 0
16 -11 18 -90 18 -79 0 -90 -2 -90 -18z"/>
<path d="M1070 4542 c0 -10 18 -27 46 -41 l46 -25 44 24 c26 15 44 32 44 42 0
16 -11 18 -90 18 -79 0 -90 -2 -90 -18z"/>
<path d="M1272 4543 c2 -10 24 -29 49 -42 l46 -25 47 28 c74 43 63 56 -50 56
-85 0 -95 -2 -92 -17z"/>
<path d="M1470 4545 c0 -8 21 -26 46 -41 l47 -28 46 25 c25 13 47 32 49 42 3
15 -7 17 -92 17 -77 0 -96 -3 -96 -15z"/>
<path d="M1680 4542 c0 -10 18 -27 44 -42 l44 -24 46 25 c28 14 46 31 46 41 0
16 -11 18 -90 18 -79 0 -90 -2 -90 -18z"/>
<path d="M1880 4542 c0 -10 18 -27 46 -41 l46 -25 44 24 c26 15 44 32 44 42 0
16 -11 18 -90 18 -79 0 -90 -2 -90 -18z"/>
<path d="M2082 4543 c2 -10 24 -29 49 -42 l46 -25 47 28 c74 43 63 56 -50 56
-85 0 -95 -2 -92 -17z"/>
<path d="M2290 4541 c0 -11 16 -27 43 -41 l44 -23 44 24 c24 13 45 32 47 42 3
15 -7 17 -87 17 -82 0 -91 -2 -91 -19z"/>
<path d="M2490 4542 c0 -10 18 -27 44 -42 l44 -24 46 25 c28 14 46 31 46 41 0
16 -11 18 -90 18 -79 0 -90 -2 -90 -18z"/>
<path d="M2690 4545 c0 -15 70 -65 90 -65 24 0 90 46 90 63 0 15 -11 17 -90
17 -73 0 -90 -3 -90 -15z"/>
<path d="M2892 4543 c2 -10 24 -29 49 -42 l46 -25 47 28 c74 43 63 56 -50 56
-85 0 -95 -2 -92 -17z"/>
<path d="M3100 4542 c0 -18 64 -62 89 -62 21 0 91 50 91 65 0 12 -17 15 -90
15 -80 0 -90 -2 -90 -18z"/>
<path d="M3300 4542 c0 -10 18 -27 45 -42 l45 -25 45 25 c27 15 45 32 45 42 0
16 -11 18 -90 18 -79 0 -90 -2 -90 -18z"/>
<path d="M3500 4545 c0 -15 70 -65 91 -65 25 0 89 44 89 62 0 16 -10 18 -90
18 -73 0 -90 -3 -90 -15z"/>
<path d="M3700 4545 c0 -8 21 -26 46 -41 l47 -28 46 25 c25 13 47 32 49 42 3
15 -7 17 -92 17 -77 0 -96 -3 -96 -15z"/>
<path d="M3910 4542 c0 -10 18 -27 44 -42 l44 -24 46 25 c28 14 46 31 46 41 0
16 -11 18 -90 18 -79 0 -90 -2 -90 -18z"/>
<path d="M4110 4542 c0 -10 18 -27 46 -41 l46 -25 44 24 c26 15 44 32 44 42 0
16 -11 18 -90 18 -79 0 -90 -2 -90 -18z"/>
<path d="M4312 4543 c2 -10 24 -29 49 -42 l46 -25 47 28 c74 43 63 56 -50 56
-85 0 -95 -2 -92 -17z"/>
<path d="M4510 4546 c0 -7 11 -21 25 -30 25 -16 25 -16 25 14 0 25 -4 30 -25
30 -15 0 -25 -6 -25 -14z"/>
<path d="M23 4498 c-21 -10 -23 -18 -23 -93 0 -77 1 -82 25 -93 20 -9 31 -7
70 14 45 25 45 26 45 79 0 53 0 53 -46 79 -26 14 -47 26 -48 25 0 0 -11 -5
-23 -11z"/>
<path d="M203 4484 c-42 -25 -43 -26 -43 -79 0 -54 1 -54 45 -80 l44 -26 46
26 c44 27 45 28 45 80 0 52 -1 54 -44 79 -25 14 -46 26 -48 26 -2 0 -22 -12
-45 -26z"/>
<path d="M403 4484 c-42 -25 -43 -27 -43 -79 0 -52 1 -53 45 -80 l46 -26 44
26 c44 26 45 26 45 80 0 53 -1 55 -43 80 -24 14 -46 25 -48 25 -2 -1 -23 -12
-46 -26z"/>
<path d="M603 4483 c-42 -24 -43 -26 -43 -78 0 -53 0 -53 46 -79 l46 -26 49
27 c49 26 49 26 49 78 0 52 0 52 -49 78 -27 15 -50 27 -52 26 -2 -1 -23 -12
-46 -26z"/>
<path d="M815 4487 c-40 -22 -40 -23 -40 -82 0 -59 0 -60 41 -82 l41 -23 47
26 c46 26 46 26 46 79 0 53 0 53 -46 79 -26 14 -47 26 -48 26 0 0 -19 -11 -41
-23z"/>
<path d="M1013 4484 c-42 -25 -43 -26 -43 -79 0 -54 1 -54 45 -80 l44 -26 46
26 c44 27 45 28 45 80 0 52 -1 54 -44 79 -25 14 -46 26 -48 26 -2 0 -22 -12
-45 -26z"/>
<path d="M1213 4484 c-42 -25 -43 -27 -43 -79 0 -52 1 -53 45 -80 l46 -26 44
26 c44 26 45 26 45 80 0 53 -1 55 -43 80 -24 14 -46 25 -48 25 -2 -1 -23 -12
-46 -26z"/>
<path d="M1413 4482 c-41 -26 -43 -29 -43 -77 0 -49 1 -51 46 -78 l46 -27 49
26 c49 27 49 27 49 79 0 52 0 52 -49 78 -27 15 -50 27 -52 26 -2 0 -23 -13
-46 -27z"/>
<path d="M1623 4484 c-42 -25 -43 -26 -43 -79 0 -53 1 -55 44 -80 l43 -25 47
26 c46 26 46 26 46 79 0 53 0 53 -46 79 -26 14 -47 26 -48 26 0 0 -20 -12 -43
-26z"/>
<path d="M1823 4484 c-42 -25 -43 -27 -43 -79 0 -52 1 -53 45 -79 l45 -27 45
27 c44 26 45 27 45 79 0 52 -1 54 -44 79 -25 14 -46 26 -48 26 -2 -1 -22 -12
-45 -26z"/>
<path d="M2023 4483 c-42 -24 -43 -26 -43 -78 0 -53 0 -53 46 -79 l47 -26 43
25 c43 25 44 27 44 80 0 53 -1 55 -43 80 -24 14 -46 25 -48 24 -2 -1 -23 -12
-46 -26z"/>
<path d="M2228 4483 c-48 -26 -48 -27 -48 -78 0 -52 0 -52 49 -79 l49 -26 46
27 c45 27 46 29 46 78 0 49 -1 51 -45 78 -25 15 -47 27 -48 27 -1 0 -23 -12
-49 -27z"/>
<path d="M2433 4484 c-42 -25 -43 -26 -43 -79 0 -54 1 -54 45 -80 l44 -26 46
26 c44 27 45 28 45 80 0 52 -1 54 -44 79 -25 14 -46 26 -48 26 -2 0 -22 -12
-45 -26z"/>
<path d="M2633 4484 c-42 -25 -43 -27 -43 -79 0 -52 1 -53 45 -80 l46 -26 44
26 c44 26 45 26 45 80 0 53 -1 55 -43 80 -24 14 -46 25 -48 25 -2 -1 -23 -12
-46 -26z"/>
<path d="M2833 4483 c-42 -24 -43 -26 -43 -78 0 -53 0 -53 46 -79 44 -24 47
-25 77 -10 55 28 67 44 67 89 0 27 -6 47 -17 57 -17 15 -79 49 -85 47 -2 -1
-22 -12 -45 -26z"/>
<path d="M3038 4483 c-48 -26 -48 -27 -48 -78 0 -52 0 -52 49 -78 l49 -27 46
26 c46 26 46 26 46 79 0 53 0 53 -46 79 -26 14 -47 26 -48 26 0 0 -22 -12 -48
-27z"/>
<path d="M3243 4484 c-42 -25 -43 -26 -43 -79 0 -54 1 -54 45 -80 l44 -26 46
26 c44 27 45 28 45 80 0 52 -1 54 -44 79 -25 14 -46 26 -48 26 -2 0 -22 -12
-45 -26z"/>
<path d="M3443 4484 c-42 -25 -43 -27 -43 -79 0 -52 1 -53 45 -80 l46 -26 44
26 c44 26 45 26 45 80 0 53 -1 55 -43 80 -24 14 -46 25 -48 25 -2 -1 -23 -12
-46 -26z"/>
<path d="M3643 4483 c-42 -24 -43 -26 -43 -78 0 -53 0 -53 46 -79 l46 -26 49
27 c49 26 49 26 49 78 0 52 0 52 -49 78 -27 15 -50 27 -52 26 -2 -1 -23 -12
-46 -26z"/>
<path d="M3855 4487 c-40 -22 -40 -23 -40 -82 0 -59 0 -60 41 -82 l41 -23 47
26 c46 26 46 26 46 79 0 53 0 53 -46 79 -26 14 -47 26 -48 26 0 0 -19 -11 -41
-23z"/>
<path d="M4053 4484 c-42 -25 -43 -26 -43 -79 0 -54 1 -54 45 -80 l44 -26 46
26 c44 27 45 28 45 80 0 52 -1 54 -44 79 -25 14 -46 26 -48 26 -2 0 -22 -12
-45 -26z"/>
<path d="M4253 4484 c-42 -25 -43 -27 -43 -79 0 -52 1 -53 45 -80 l46 -26 44
26 c44 26 45 26 45 80 0 53 -1 55 -43 80 -24 14 -46 25 -48 25 -2 -1 -23 -12
-46 -26z"/>
<path d="M4453 4482 c-41 -26 -43 -29 -43 -77 0 -49 1 -51 45 -78 44 -26 47
-26 75 -12 29 15 30 18 30 90 0 72 -1 75 -30 90 -35 18 -26 19 -77 -13z"/>
<path d="M98 4307 c-37 -21 -38 -24 -38 -78 l0 -56 44 -24 44 -23 46 25 c46
24 46 24 46 76 0 51 -2 54 -40 78 -48 30 -55 30 -102 2z"/>
<path d="M298 4306 c-37 -20 -38 -23 -38 -76 0 -55 0 -55 45 -80 l45 -25 45
25 c45 25 45 25 45 80 0 54 -1 56 -40 78 -46 26 -54 26 -102 -2z"/>
<path d="M505 4307 c-38 -22 -40 -25 -43 -77 l-3 -55 47 -24 46 -25 44 23 44
24 0 57 c0 55 -1 57 -39 78 -47 27 -47 27 -96 -1z"/>
<path d="M702 4304 c-43 -26 -43 -26 -40 -77 3 -50 4 -53 49 -76 l46 -24 44
24 c44 24 44 25 44 79 0 53 -1 55 -40 77 -50 28 -51 28 -103 -3z"/>
<path d="M908 4307 c-37 -21 -38 -24 -38 -78 l0 -56 44 -24 44 -23 46 25 46
24 0 55 c0 55 0 55 -42 78 -52 27 -53 27 -100 -1z"/>
<path d="M1108 4306 c-37 -20 -38 -23 -38 -76 0 -55 0 -55 45 -80 l45 -25 45
25 c45 25 45 25 45 80 0 54 -1 56 -40 78 -46 26 -54 26 -102 -2z"/>
<path d="M1315 4307 c-38 -21 -40 -25 -43 -74 -3 -51 -2 -53 37 -78 50 -31 54
-31 108 0 41 25 43 28 43 75 0 47 -2 50 -43 75 -53 30 -52 30 -102 2z"/>
<path d="M1513 4304 c-41 -24 -43 -27 -43 -75 0 -45 3 -51 33 -69 53 -33 71
-34 116 -5 41 26 42 27 39 78 -3 49 -5 53 -43 74 -50 28 -51 28 -102 -3z"/>
<path d="M1718 4307 c-37 -21 -38 -24 -38 -78 l0 -56 45 -24 45 -24 45 25 c45
25 45 25 45 80 0 55 0 55 -42 78 -52 27 -53 27 -100 -1z"/>
<path d="M1918 4306 c-37 -20 -38 -23 -38 -76 0 -55 0 -55 45 -80 l45 -25 45
24 45 24 0 56 c0 55 -1 57 -40 79 -46 26 -54 26 -102 -2z"/>
<path d="M2125 4307 c-38 -21 -40 -25 -43 -74 -3 -51 -2 -52 39 -78 45 -29 63
-28 117 5 29 18 32 24 32 69 0 49 -1 51 -43 76 -53 30 -52 30 -102 2z"/>
<path d="M2328 4308 c-37 -21 -38 -24 -38 -78 0 -55 1 -57 39 -78 49 -28 53
-27 102 3 39 25 40 27 37 78 -3 49 -5 53 -43 74 -49 28 -51 28 -97 1z"/>
<path d="M2528 4307 c-36 -21 -38 -24 -38 -77 0 -55 0 -55 45 -80 l45 -25 45
25 c45 25 45 25 45 80 0 55 0 55 -42 78 -52 27 -53 27 -100 -1z"/>
<path d="M2728 4304 c-36 -23 -38 -27 -38 -77 0 -52 0 -52 46 -76 l46 -25 44
23 44 24 0 56 c0 55 -1 57 -40 79 -48 27 -56 27 -102 -4z"/>
<path d="M2932 4304 c-43 -26 -43 -26 -40 -77 3 -50 4 -53 49 -76 l46 -24 44
24 c42 23 44 26 47 76 3 51 3 52 -41 77 -24 14 -48 26 -53 26 -5 0 -28 -12
-52 -26z"/>
<path d="M3138 4307 c-37 -21 -38 -24 -38 -78 l0 -56 44 -24 44 -23 46 25 c46
24 46 24 46 76 0 51 -2 54 -40 78 -48 30 -55 30 -102 2z"/>
<path d="M3338 4306 c-37 -20 -38 -23 -38 -76 0 -55 0 -55 45 -80 l45 -25 45
25 c45 25 45 25 45 80 0 54 -1 56 -40 78 -46 26 -54 26 -102 -2z"/>
<path d="M3545 4307 c-38 -22 -40 -25 -43 -77 l-3 -55 47 -24 46 -25 44 23 44
24 0 57 c0 55 -1 57 -39 78 -47 27 -47 27 -96 -1z"/>
<path d="M3742 4304 c-43 -26 -43 -26 -40 -77 3 -50 4 -53 49 -76 l46 -24 44
24 c44 24 44 25 44 79 0 53 -1 55 -40 77 -50 28 -51 28 -103 -3z"/>
<path d="M3948 4307 c-37 -21 -38 -24 -38 -78 l0 -56 44 -24 44 -23 46 25 46
24 0 55 c0 55 0 55 -42 78 -52 27 -53 27 -100 -1z"/>
<path d="M4148 4306 c-37 -20 -38 -23 -38 -76 0 -55 0 -55 45 -80 l45 -25 45
25 c45 25 45 25 45 80 0 54 -1 56 -40 78 -46 26 -54 26 -102 -2z"/>
<path d="M4355 4307 c-38 -21 -40 -25 -43 -74 -3 -51 -2 -53 37 -78 50 -31 54
-31 108 0 41 25 43 28 43 75 0 47 -2 50 -43 75 -53 30 -52 30 -102 2z"/>
<path d="M4532 4292 c-20 -15 -23 -26 -20 -66 2 -37 8 -52 26 -64 l22 -14 0
81 c0 44 -1 81 -2 81 -2 0 -13 -8 -26 -18z"/>
<path d="M0 4230 c0 -38 4 -70 8 -70 20 0 32 28 32 72 0 37 -4 50 -20 58 -19
10 -20 8 -20 -60z"/>
<path d="M23 4147 c-21 -9 -23 -17 -23 -92 0 -75 2 -83 23 -94 19 -10 29 -8
70 14 47 27 47 27 47 79 0 53 0 53 -47 78 -39 21 -52 24 -70 15z"/>
<path d="M203 4134 c-42 -25 -43 -27 -43 -80 0 -52 1 -54 45 -79 l44 -26 46
26 c44 27 45 28 45 80 0 53 0 53 -46 79 -26 14 -47 26 -48 26 0 -1 -20 -12
-43 -26z"/>
<path d="M403 4133 c-42 -24 -43 -26 -43 -78 0 -52 1 -53 45 -80 l46 -26 44
26 c44 25 45 27 45 79 0 53 -1 54 -44 80 -25 14 -46 26 -48 25 -2 -1 -22 -12
-45 -26z"/>
<path d="M607 4132 l-48 -26 3 -54 c3 -52 4 -54 49 -78 l46 -26 46 29 c45 27
47 30 47 75 0 40 -4 50 -27 66 -60 42 -66 42 -116 14z"/>
<path d="M812 4134 l-43 -26 3 -56 c3 -55 4 -57 45 -80 l42 -23 46 26 c44 26
45 28 45 79 0 50 -1 52 -45 79 -25 15 -47 27 -48 27 -1 0 -21 -12 -45 -26z"/>
<path d="M1013 4134 c-42 -25 -43 -27 -43 -80 0 -53 1 -53 45 -80 l45 -26 45
26 c44 27 45 27 45 80 0 53 -1 54 -44 80 -25 14 -46 26 -48 26 -2 -1 -22 -12
-45 -26z"/>
<path d="M1213 4133 c-42 -24 -43 -26 -43 -78 0 -52 1 -53 45 -80 l46 -26 42
23 c41 23 42 25 45 80 l3 57 -44 25 c-24 14 -46 26 -48 25 -2 -1 -23 -12 -46
-26z"/>
<path d="M1417 4132 l-48 -26 3 -54 c3 -52 4 -54 48 -78 l46 -25 47 26 c47 27
47 27 47 79 0 53 0 53 -48 79 l-47 26 -48 -27z"/>
<path d="M1622 4134 l-43 -26 3 -56 c3 -55 4 -57 45 -80 l42 -23 46 26 c44 27
45 28 45 80 0 53 0 53 -46 79 -26 14 -47 26 -48 26 0 0 -20 -12 -44 -26z"/>
<path d="M1823 4134 c-42 -25 -43 -27 -43 -80 0 -53 1 -53 45 -80 l45 -26 45
26 c44 27 45 27 45 80 0 53 -1 54 -44 80 -25 14 -46 26 -48 26 -2 -1 -22 -12
-45 -26z"/>
<path d="M2023 4132 c-42 -26 -43 -28 -43 -78 0 -51 1 -53 45 -79 l46 -26 42
23 c41 23 42 25 45 80 l3 57 -44 25 c-24 14 -46 26 -48 25 -2 0 -23 -13 -46
-27z"/>
<path d="M2227 4132 l-48 -27 3 -53 c3 -52 4 -54 48 -78 l46 -25 47 26 c47 27
47 27 47 79 0 53 0 53 -48 79 l-47 26 -48 -27z"/>
<path d="M2432 4133 l-43 -26 3 -56 c3 -54 4 -56 45 -79 l42 -23 46 26 c44 27
45 28 45 80 0 53 0 53 -46 79 -26 14 -47 26 -48 26 0 -1 -20 -12 -44 -27z"/>
<path d="M2633 4133 c-42 -24 -43 -26 -43 -78 0 -54 1 -54 45 -81 l45 -26 45
26 c44 27 45 27 45 80 0 53 -1 54 -44 80 -25 14 -46 26 -48 25 -2 -1 -22 -12
-45 -26z"/>
<path d="M2837 4133 c-47 -26 -47 -27 -47 -79 0 -51 1 -53 45 -78 43 -26 46
-26 77 -10 56 28 68 44 68 90 0 35 -5 46 -27 62 -60 41 -66 42 -116 15z"/>
<path d="M3037 4130 c-45 -28 -47 -31 -47 -77 0 -47 2 -49 47 -76 l46 -29 46
26 c45 24 46 26 49 79 l3 53 -49 27 -49 27 -46 -30z"/>
<path d="M3243 4134 c-42 -25 -43 -27 -43 -80 0 -52 1 -54 45 -79 l44 -26 46
26 c44 27 45 28 45 80 0 53 0 53 -46 79 -26 14 -47 26 -48 26 0 -1 -20 -12
-43 -26z"/>
<path d="M3443 4133 c-42 -24 -43 -26 -43 -78 0 -52 1 -53 45 -80 l46 -26 44
26 c44 25 45 27 45 79 0 53 -1 54 -44 80 -25 14 -46 26 -48 25 -2 -1 -22 -12
-45 -26z"/>
<path d="M3647 4132 l-48 -26 3 -54 c3 -52 4 -54 49 -78 l46 -26 46 29 c45 27
47 30 47 75 0 40 -4 50 -27 66 -60 42 -66 42 -116 14z"/>
<path d="M3852 4134 l-43 -26 3 -56 c3 -55 4 -57 45 -80 l42 -23 46 26 c44 26
45 28 45 79 0 50 -1 52 -45 79 -25 15 -47 27 -48 27 -1 0 -21 -12 -45 -26z"/>
<path d="M4053 4134 c-42 -25 -43 -27 -43 -80 0 -53 1 -53 45 -80 l45 -26 45
26 c44 27 45 27 45 80 0 53 -1 54 -44 80 -25 14 -46 26 -48 26 -2 -1 -22 -12
-45 -26z"/>
<path d="M4253 4133 c-42 -24 -43 -26 -43 -78 0 -52 1 -53 45 -80 l46 -26 42
23 c41 23 42 25 45 80 l3 57 -44 25 c-24 14 -46 26 -48 25 -2 -1 -23 -12 -46
-26z"/>
<path d="M4457 4132 l-48 -26 3 -54 c3 -52 4 -54 49 -79 45 -24 48 -24 73 -8
24 16 26 23 26 91 0 70 -1 74 -28 88 -26 13 -32 12 -75 -12z"/>
<path d="M98 3957 c-37 -21 -38 -24 -38 -79 0 -56 0 -56 44 -81 l44 -24 46 26
47 26 -3 55 c-3 52 -5 55 -43 77 -49 28 -51 28 -97 0z"/>
<path d="M298 3956 c-37 -20 -38 -23 -38 -77 l0 -56 45 -24 45 -24 45 24 45
24 0 56 c0 56 0 56 -42 79 -51 26 -52 26 -100 -2z"/>
<path d="M505 3957 c-38 -22 -40 -25 -43 -77 l-3 -55 47 -26 46 -26 44 24 c44
25 44 25 44 81 0 56 -1 57 -40 80 -48 27 -46 27 -95 -1z"/>
<path d="M703 3954 c-41 -24 -43 -27 -43 -74 0 -48 2 -51 42 -77 24 -14 47
-26 53 -26 6 0 29 12 53 26 40 26 42 29 42 77 0 47 -1 50 -43 75 -24 14 -48
25 -53 25 -5 0 -28 -12 -51 -26z"/>
<path d="M908 3957 c-36 -21 -38 -24 -38 -77 0 -54 1 -56 43 -81 l44 -27 47
27 47 26 -3 55 c-3 52 -5 55 -43 77 -49 28 -51 28 -97 0z"/>
<path d="M1108 3954 c-36 -23 -38 -27 -38 -77 0 -52 0 -53 45 -77 l45 -25 45
24 45 24 0 56 c0 56 0 56 -42 79 -52 27 -54 27 -100 -4z"/>
<path d="M1313 3954 c-42 -24 -43 -27 -43 -77 0 -52 1 -52 48 -78 l47 -26 45
27 c43 25 45 29 48 77 3 50 3 51 -42 77 -24 14 -48 26 -53 26 -4 0 -27 -12
-50 -26z"/>
<path d="M1512 3953 c-42 -25 -43 -26 -40 -76 3 -49 5 -52 49 -78 l46 -27 47
29 c45 28 46 30 46 79 0 47 -1 50 -43 75 -24 14 -48 25 -53 25 -5 -1 -28 -12
-52 -27z"/>
<path d="M1718 3956 c-37 -20 -38 -23 -38 -77 l0 -56 45 -24 45 -24 45 25 c45
24 45 25 45 77 0 51 -2 54 -40 78 -47 29 -53 30 -102 1z"/>
<path d="M1925 3957 c-38 -22 -40 -25 -43 -77 l-3 -55 46 -25 45 -25 45 24 45
24 0 56 c0 55 -1 57 -40 79 -48 27 -46 27 -95 -1z"/>
<path d="M2123 3954 c-41 -24 -43 -27 -43 -74 0 -48 2 -51 42 -77 24 -14 47
-26 53 -26 6 0 29 12 53 26 40 26 42 29 42 77 0 47 -1 50 -43 75 -24 14 -48
25 -53 25 -5 0 -28 -12 -51 -26z"/>
<path d="M2328 3957 c-37 -21 -38 -24 -38 -79 0 -56 0 -56 44 -81 l44 -24 46
26 47 26 -3 55 c-3 52 -5 55 -43 77 -49 28 -51 28 -97 0z"/>
<path d="M2528 3956 c-37 -20 -38 -23 -38 -77 l0 -56 45 -24 45 -24 45 25 c45
25 45 25 45 80 0 55 0 55 -42 78 -51 26 -52 26 -100 -2z"/>
<path d="M2735 3957 c-38 -22 -40 -25 -43 -77 l-3 -55 47 -26 47 -27 44 27
c42 25 43 27 43 81 0 54 -1 56 -40 78 -48 27 -46 27 -95 -1z"/>
<path d="M2933 3954 c-41 -24 -43 -27 -43 -74 0 -48 2 -51 42 -77 24 -14 47
-26 53 -26 6 0 29 12 53 26 40 26 42 29 42 77 0 47 -1 50 -43 75 -24 14 -48
25 -53 25 -5 0 -28 -12 -51 -26z"/>
<path d="M3138 3957 c-37 -21 -38 -24 -38 -79 0 -56 0 -56 44 -81 l44 -24 46
26 47 26 -3 55 c-3 52 -5 55 -43 77 -49 28 -51 28 -97 0z"/>
<path d="M3338 3956 c-37 -20 -38 -23 -38 -77 l0 -56 45 -24 45 -24 45 24 45
24 0 56 c0 56 0 56 -42 79 -51 26 -52 26 -100 -2z"/>
<path d="M3545 3957 c-38 -22 -40 -25 -43 -77 l-3 -55 47 -26 46 -26 44 24
c44 25 44 25 44 81 0 56 -1 57 -40 80 -48 27 -46 27 -95 -1z"/>
<path d="M3743 3954 c-41 -24 -43 -27 -43 -74 0 -48 2 -51 42 -77 24 -14 47
-26 53 -26 6 0 29 12 53 26 40 26 42 29 42 77 0 47 -1 50 -43 75 -24 14 -48
25 -53 25 -5 0 -28 -12 -51 -26z"/>
<path d="M3948 3957 c-36 -21 -38 -24 -38 -77 0 -54 1 -56 43 -81 l44 -27 47
27 47 26 -3 55 c-3 52 -5 55 -43 77 -49 28 -51 28 -97 0z"/>
<path d="M4148 3954 c-36 -23 -38 -27 -38 -77 0 -52 0 -53 45 -77 l45 -25 45
24 45 24 0 56 c0 56 0 56 -42 79 -52 27 -54 27 -100 -4z"/>
<path d="M4353 3954 c-42 -24 -43 -27 -43 -77 0 -52 1 -52 48 -78 l47 -26 45
27 c43 25 45 29 48 77 3 50 3 51 -42 77 -24 14 -48 26 -53 26 -4 0 -27 -12
-50 -26z"/>
<path d="M0 3880 c0 -38 4 -70 8 -70 20 0 32 28 32 72 0 37 -4 50 -20 58 -19
10 -20 8 -20 -60z"/>
<path d="M4526 3937 c-26 -19 -19 -105 12 -125 l22 -14 0 76 c0 78 -4 85 -34
63z"/>
<path d="M23 3797 c-21 -9 -23 -17 -23 -92 0 -76 2 -83 24 -94 21 -12 29 -10
70 14 45 26 46 28 46 78 0 52 0 52 -48 78 -38 22 -51 25 -69 16z"/>
<path d="M202 3783 l-43 -26 3 -56 c3 -54 4 -56 46 -79 l42 -24 45 27 c44 25
45 27 45 78 0 51 -1 53 -45 80 -25 15 -47 27 -48 27 -1 -1 -21 -12 -45 -27z"/>
<path d="M403 3782 c-42 -26 -43 -28 -43 -79 0 -51 1 -53 45 -78 l45 -27 42
24 c42 23 43 25 46 79 l3 57 -45 26 c-24 14 -46 26 -48 25 -2 0 -22 -13 -45
-27z"/>
<path d="M607 3782 c-46 -27 -47 -28 -47 -79 0 -50 1 -52 46 -78 l46 -27 47
25 c44 25 46 28 49 75 3 45 0 52 -25 70 -60 42 -65 42 -116 14z"/>
<path d="M813 3783 c-43 -25 -43 -26 -43 -82 l0 -56 44 -23 44 -24 46 27 c45
27 46 28 46 79 0 53 0 53 -47 79 l-48 25 -42 -25z"/>
<path d="M1012 3783 l-43 -25 3 -56 c3 -55 4 -57 46 -80 l42 -24 45 27 c44 26
45 26 45 80 0 53 0 53 -46 79 -26 14 -47 26 -48 25 0 -1 -20 -12 -44 -26z"/>
<path d="M1217 3782 l-48 -26 3 -54 c3 -54 4 -55 48 -80 l45 -25 43 27 c43 27
43 27 40 82 -3 52 -5 56 -43 79 l-41 24 -47 -27z"/>
<path d="M1417 3782 l-48 -27 3 -53 c3 -52 4 -54 49 -79 l45 -26 47 27 c46 28
47 29 47 79 0 52 0 52 -48 79 l-47 27 -48 -27z"/>
<path d="M1623 3783 c-42 -25 -43 -26 -43 -79 0 -52 1 -54 42 -80 l43 -27 45
25 c44 25 45 26 48 80 l3 54 -48 26 -48 26 -42 -25z"/>
<path d="M1823 3783 c-42 -24 -43 -26 -43 -78 0 -54 1 -54 45 -80 l45 -27 42
24 c42 23 43 25 46 80 l3 56 -47 26 c-25 14 -47 26 -48 25 0 -1 -20 -12 -43
-26z"/>
<path d="M2027 3783 c-47 -26 -47 -27 -47 -79 0 -51 1 -52 46 -79 l46 -27 44
24 45 23 -3 58 c-3 56 -4 58 -43 82 l-41 24 -47 -26z"/>
<path d="M2226 3780 c-47 -30 -47 -30 -44 -81 3 -48 5 -51 49 -76 l47 -25 46
27 c45 26 46 28 46 78 0 52 0 52 -48 79 l-49 27 -47 -29z"/>
<path d="M2432 3783 l-43 -26 3 -56 c3 -54 4 -56 46 -79 l42 -24 45 27 c44 25
45 27 45 79 0 53 0 53 -47 79 l-48 25 -43 -25z"/>
<path d="M2633 3783 c-42 -24 -43 -26 -43 -78 0 -54 1 -54 45 -80 l45 -27 42
24 c42 23 43 25 46 80 l3 56 -47 26 c-25 14 -47 26 -48 25 0 -1 -20 -12 -43
-26z"/>
<path d="M2837 3783 c-47 -26 -47 -27 -47 -79 0 -51 1 -52 46 -79 l46 -27 42
23 c52 28 56 35 56 86 0 44 -3 47 -85 95 -6 4 -32 -5 -58 -19z"/>
<path d="M3036 3780 c-47 -30 -47 -30 -44 -81 3 -48 5 -51 49 -76 l47 -25 46
27 c45 26 46 28 46 78 0 52 0 52 -48 79 l-49 27 -47 -29z"/>
<path d="M3242 3783 l-43 -26 3 -56 c3 -54 4 -56 46 -79 l42 -24 45 27 c44 25
45 27 45 78 0 51 -1 53 -45 80 -25 15 -47 27 -48 27 -1 -1 -21 -12 -45 -27z"/>
<path d="M3443 3782 c-42 -26 -43 -28 -43 -79 0 -51 1 -53 45 -78 l45 -27 42
24 c42 23 43 25 46 79 l3 57 -45 26 c-24 14 -46 26 -48 25 -2 0 -22 -13 -45
-27z"/>
<path d="M3647 3782 c-46 -27 -47 -28 -47 -79 0 -50 1 -52 46 -78 l46 -27 47
25 c44 25 46 28 49 75 3 45 0 52 -25 70 -60 42 -65 42 -116 14z"/>
<path d="M3853 3783 c-43 -25 -43 -26 -43 -82 l0 -56 44 -23 44 -24 46 27 c45
27 46 28 46 79 0 53 0 53 -47 79 l-48 25 -42 -25z"/>
<path d="M4052 3783 l-43 -25 3 -56 c3 -55 4 -57 46 -80 l42 -24 45 27 c44 26
45 26 45 80 0 53 0 53 -46 79 -26 14 -47 26 -48 25 0 -1 -20 -12 -44 -26z"/>
<path d="M4257 3782 l-48 -26 3 -54 c3 -54 4 -55 48 -80 l45 -25 43 27 c43 27
43 27 40 82 -3 52 -5 56 -43 79 l-41 24 -47 -27z"/>
<path d="M4457 3782 l-48 -27 3 -53 c3 -52 4 -54 49 -80 45 -25 47 -25 73 -9
24 16 26 23 26 92 0 71 -1 75 -28 89 -26 13 -31 12 -75 -12z"/>
<path d="M98 3606 c-37 -20 -38 -23 -38 -78 0 -56 0 -56 44 -81 l44 -24 46 26
c45 26 46 27 46 78 0 51 -1 53 -43 78 -51 29 -51 29 -99 1z"/>
<path d="M305 3607 c-38 -22 -40 -25 -43 -78 l-3 -55 47 -26 47 -26 44 27 44
26 -3 55 c-3 52 -5 55 -43 77 -22 12 -42 23 -45 23 -3 0 -23 -11 -45 -23z"/>
<path d="M503 3604 c-42 -24 -43 -27 -43 -77 0 -52 0 -52 48 -79 l47 -26 43
25 c42 25 42 26 42 82 0 56 0 56 -42 79 -24 12 -45 22 -48 22 -3 0 -24 -12
-47 -26z"/>
<path d="M703 3604 c-41 -25 -43 -28 -43 -75 0 -51 1 -52 86 -102 6 -3 32 7
58 23 45 29 46 31 46 79 0 48 -1 50 -44 75 -25 14 -48 26 -53 26 -4 -1 -27
-12 -50 -26z"/>
<path d="M908 3606 c-37 -20 -38 -23 -38 -78 0 -56 0 -56 44 -81 l44 -24 46
25 c46 25 46 26 46 78 0 52 -1 54 -43 79 -51 29 -51 29 -99 1z"/>
<path d="M1115 3607 c-38 -22 -40 -25 -43 -78 l-3 -55 47 -26 46 -25 44 24
c44 24 44 25 44 79 0 52 -1 55 -40 79 -48 30 -45 30 -95 2z"/>
<path d="M1313 3604 c-42 -24 -43 -27 -43 -77 0 -52 0 -52 48 -79 l48 -27 47
30 c46 28 47 30 47 78 0 47 -1 50 -44 75 -25 14 -48 26 -53 26 -4 0 -27 -12
-50 -26z"/>
<path d="M1513 3604 c-41 -25 -43 -28 -43 -75 0 -48 1 -50 47 -78 l47 -30 48
27 c48 27 48 27 48 79 0 51 -1 53 -43 78 -24 14 -48 25 -53 25 -5 -1 -28 -12
-51 -26z"/>
<path d="M1718 3606 c-37 -20 -38 -23 -38 -78 0 -56 0 -56 44 -81 l44 -24 46
25 47 26 -3 55 c-3 53 -5 56 -43 78 -48 27 -49 27 -97 -1z"/>
<path d="M1925 3607 c-38 -22 -40 -25 -43 -78 l-3 -55 47 -26 46 -25 44 24
c44 25 44 25 44 81 0 57 0 57 -42 80 -24 12 -45 22 -48 22 -3 0 -23 -11 -45
-23z"/>
<path d="M2123 3604 c-42 -24 -43 -27 -43 -77 0 -52 0 -52 48 -79 l48 -27 47
30 c46 28 47 30 47 78 0 47 -1 50 -44 75 -25 14 -48 26 -53 26 -4 0 -27 -12
-50 -26z"/>
<path d="M2328 3607 c-37 -21 -38 -24 -38 -78 0 -56 0 -57 43 -82 l42 -25 47
26 c48 27 48 27 48 79 0 51 -1 53 -43 78 -52 30 -52 30 -99 2z"/>
<path d="M2528 3604 c-36 -23 -38 -27 -38 -77 0 -51 1 -53 44 -78 l43 -27 47
26 47 26 -3 55 c-3 53 -5 56 -43 78 -49 28 -51 28 -97 -3z"/>
<path d="M2733 3604 c-42 -24 -43 -27 -43 -77 0 -51 1 -52 46 -78 l46 -26 44
24 c44 25 44 25 44 81 0 57 0 57 -42 80 -24 12 -45 22 -48 22 -3 0 -24 -12
-47 -26z"/>
<path d="M2933 3604 c-41 -25 -43 -28 -43 -75 0 -46 2 -50 42 -76 24 -14 47
-26 53 -26 6 0 29 12 53 26 40 26 42 30 42 76 0 47 -1 50 -44 75 -25 14 -48
26 -53 26 -4 -1 -27 -12 -50 -26z"/>
<path d="M3138 3606 c-37 -20 -38 -23 -38 -78 0 -56 0 -56 44 -81 l44 -24 46
26 c45 26 46 27 46 78 0 51 -1 53 -43 78 -51 29 -51 29 -99 1z"/>
<path d="M3345 3607 c-38 -22 -40 -25 -43 -78 l-3 -55 47 -26 47 -26 44 27 44
26 -3 55 c-3 52 -5 55 -43 77 -22 12 -42 23 -45 23 -3 0 -23 -11 -45 -23z"/>
<path d="M3543 3604 c-42 -24 -43 -27 -43 -77 0 -52 0 -52 48 -79 l47 -26 43
25 c42 25 42 26 42 82 0 56 0 56 -42 79 -24 12 -45 22 -48 22 -3 0 -24 -12
-47 -26z"/>
<path d="M3743 3604 c-41 -25 -43 -28 -43 -75 0 -51 1 -52 86 -102 6 -3 32 7
58 23 45 29 46 31 46 79 0 48 -1 50 -44 75 -25 14 -48 26 -53 26 -4 -1 -27
-12 -50 -26z"/>
<path d="M3948 3606 c-37 -20 -38 -23 -38 -78 0 -56 0 -56 44 -81 l44 -24 46
25 c46 25 46 26 46 78 0 52 -1 54 -43 79 -51 29 -51 29 -99 1z"/>
<path d="M4155 3607 c-38 -22 -40 -25 -43 -78 l-3 -55 47 -26 46 -25 44 24
c44 24 44 25 44 79 0 52 -1 55 -40 79 -48 30 -45 30 -95 2z"/>
<path d="M4353 3604 c-42 -24 -43 -27 -43 -77 0 -52 0 -52 48 -79 l48 -27 47
30 c46 28 47 30 47 78 0 47 -1 50 -44 75 -25 14 -48 26 -53 26 -4 0 -27 -12
-50 -26z"/>
<path d="M0 3530 c0 -38 4 -70 8 -70 20 0 32 28 32 72 0 37 -4 50 -20 58 -19
10 -20 8 -20 -60z"/>
<path d="M4526 3587 c-26 -19 -19 -105 12 -125 l22 -14 0 76 c0 78 -4 85 -34
63z"/>
<path d="M22 3444 c-19 -13 -22 -24 -22 -95 0 -74 2 -80 24 -91 21 -9 32 -6
70 16 45 26 46 28 46 79 0 52 0 52 -48 79 -45 25 -50 26 -70 12z"/>
<path d="M203 3433 c-42 -24 -43 -25 -43 -79 0 -52 1 -54 42 -80 l42 -27 46
24 c44 24 45 25 48 80 l3 55 -48 26 -48 25 -42 -24z"/>
<path d="M406 3432 c-46 -25 -46 -26 -46 -78 0 -52 1 -54 45 -80 l46 -26 44
23 45 24 0 57 c0 56 0 56 -44 81 l-44 24 -46 -25z"/>
<path d="M607 3432 c-46 -27 -47 -28 -47 -79 0 -50 1 -51 47 -79 l47 -27 45
26 c44 24 46 28 49 76 3 53 4 53 -83 103 -6 4 -32 -6 -58 -20z"/>
<path d="M813 3433 c-43 -25 -43 -26 -43 -82 l0 -56 45 -24 44 -23 46 26 c44
26 45 28 45 79 0 52 0 52 -48 79 l-47 26 -42 -25z"/>
<path d="M1013 3433 c-42 -24 -43 -25 -43 -79 0 -52 1 -54 42 -80 l42 -27 46
24 c44 24 45 25 48 80 l3 55 -48 26 -48 25 -42 -24z"/>
<path d="M1216 3432 c-46 -25 -46 -26 -46 -78 0 -52 1 -54 45 -80 l46 -26 44
23 45 24 0 57 c0 56 0 56 -44 81 l-44 24 -46 -25z"/>
<path d="M1416 3430 c-47 -30 -47 -30 -44 -81 3 -48 5 -51 49 -76 l45 -26 47
27 c46 27 47 29 47 77 0 51 -1 52 -86 102 -6 3 -32 -7 -58 -23z"/>
<path d="M1623 3433 c-43 -25 -43 -26 -43 -82 l0 -56 45 -24 44 -23 46 26 c44
26 45 28 45 79 0 52 0 52 -48 79 l-47 26 -42 -25z"/>
<path d="M1822 3432 c-43 -27 -43 -27 -40 -82 3 -53 4 -55 46 -78 l42 -23 43
23 c41 23 42 25 45 78 l3 55 -46 28 c-25 15 -47 27 -48 26 -1 0 -21 -13 -45
-27z"/>
<path d="M2027 3432 c-47 -27 -47 -27 -47 -79 0 -51 1 -53 45 -79 l46 -26 45
23 45 24 -3 58 c-3 55 -4 58 -43 81 l-40 24 -48 -26z"/>
<path d="M2227 3429 c-48 -30 -48 -30 -45 -80 3 -48 5 -52 49 -76 l45 -26 47
27 c46 28 47 29 47 79 0 52 0 52 -48 79 l-48 27 -47 -30z"/>
<path d="M2433 3433 c-43 -24 -43 -25 -43 -81 l0 -57 45 -24 44 -23 46 26 c44
26 45 28 45 80 l0 53 -47 25 -48 25 -42 -24z"/>
<path d="M2636 3432 l-47 -26 3 -55 c3 -55 4 -56 48 -80 l46 -24 42 27 c41 26
42 28 42 80 0 54 0 55 -44 79 l-44 24 -46 -25z"/>
<path d="M2837 3432 c-47 -27 -47 -27 -47 -79 0 -51 1 -53 46 -79 l47 -28 46
26 c44 25 46 29 49 77 3 53 4 53 -83 103 -6 4 -32 -6 -58 -20z"/>
<path d="M3037 3429 c-48 -30 -48 -30 -45 -80 3 -48 5 -51 49 -77 l46 -26 47
28 c45 26 46 28 46 79 0 52 0 52 -48 79 l-48 27 -47 -30z"/>
<path d="M3243 3433 c-42 -24 -43 -25 -43 -79 0 -52 1 -54 42 -80 l42 -27 46
24 c44 24 45 25 48 80 l3 55 -48 26 -48 25 -42 -24z"/>
<path d="M3446 3432 c-46 -25 -46 -26 -46 -78 0 -52 1 -54 45 -80 l46 -26 44
23 45 24 0 57 c0 56 0 56 -44 81 l-44 24 -46 -25z"/>
<path d="M3647 3432 c-46 -27 -47 -28 -47 -79 0 -50 1 -51 47 -79 l47 -27 45
26 c44 24 46 28 49 76 3 53 4 53 -83 103 -6 4 -32 -6 -58 -20z"/>
<path d="M3853 3433 c-43 -25 -43 -26 -43 -82 l0 -56 45 -24 44 -23 46 26 c44
26 45 28 45 79 0 52 0 52 -48 79 l-47 26 -42 -25z"/>
<path d="M4053 3433 c-42 -24 -43 -25 -43 -79 0 -52 1 -54 42 -80 l42 -27 46
24 c44 24 45 25 48 80 l3 55 -48 26 -48 25 -42 -24z"/>
<path d="M4256 3432 c-46 -25 -46 -26 -46 -78 0 -52 1 -54 45 -80 l46 -26 44
23 45 24 0 57 c0 56 0 56 -44 81 l-44 24 -46 -25z"/>
<path d="M4456 3430 c-47 -30 -47 -30 -44 -81 3 -49 5 -51 49 -77 45 -25 47
-25 73 -9 24 16 26 23 26 90 0 69 -1 73 -29 90 -27 16 -29 16 -75 -13z"/>
<path d="M98 3256 c-37 -20 -38 -23 -38 -77 0 -56 0 -57 43 -82 l42 -25 48 25
c47 26 47 26 47 79 0 52 -1 54 -43 79 -51 29 -51 29 -99 1z"/>
<path d="M305 3257 c-38 -22 -40 -25 -43 -79 l-3 -56 46 -25 45 -26 45 26 46
25 -3 56 c-3 54 -5 57 -43 79 -22 12 -42 23 -45 23 -3 0 -23 -11 -45 -23z"/>
<path d="M503 3254 c-42 -24 -43 -26 -43 -78 0 -53 0 -53 48 -79 l47 -25 43
25 c42 25 42 26 42 82 0 56 0 56 -42 79 -24 12 -45 22 -48 22 -3 0 -24 -12
-47 -26z"/>
<path d="M703 3254 c-41 -25 -43 -28 -43 -75 0 -48 1 -50 47 -79 l46 -29 49
27 c48 27 48 27 48 79 0 50 -1 52 -44 77 -25 14 -48 26 -53 26 -4 -1 -27 -12
-50 -26z"/>
<path d="M908 3254 c-36 -23 -38 -27 -38 -78 0 -53 1 -54 43 -79 l42 -25 48
25 c47 26 47 26 47 79 0 52 -1 54 -43 79 -53 30 -52 30 -99 -1z"/>
<path d="M1113 3254 c-42 -25 -43 -26 -43 -79 0 -53 0 -54 45 -78 l45 -26 45
26 46 25 -3 56 c-3 54 -5 57 -43 79 -22 12 -42 23 -45 23 -3 0 -24 -12 -47
-26z"/>
<path d="M1313 3254 c-42 -25 -43 -27 -43 -78 0 -53 0 -53 48 -79 l47 -26 48
30 c46 28 47 30 47 78 0 48 -1 50 -46 75 -26 14 -49 26 -53 26 -3 -1 -25 -12
-48 -26z"/>
<path d="M1513 3253 c-41 -24 -43 -26 -43 -74 0 -48 1 -50 47 -79 l46 -29 49
27 c48 27 48 27 48 79 0 50 -1 52 -44 77 -25 14 -48 26 -53 25 -4 -1 -27 -12
-50 -26z"/>
<path d="M1725 3257 c-38 -22 -40 -25 -43 -79 l-3 -56 45 -26 45 -26 45 27
c45 27 46 29 46 80 0 51 -1 53 -43 78 -24 14 -46 25 -48 25 -2 0 -22 -11 -44
-23z"/>
<path d="M1923 3254 c-42 -24 -43 -27 -43 -77 0 -51 1 -53 46 -80 l45 -27 45
26 45 26 -3 56 c-3 54 -5 57 -43 79 -22 12 -42 23 -45 23 -3 0 -24 -12 -47
-26z"/>
<path d="M2123 3254 c-42 -25 -43 -28 -43 -78 0 -51 0 -51 48 -78 l49 -27 46
29 c46 29 47 31 47 79 0 48 -1 50 -46 75 -26 14 -49 26 -53 26 -3 -1 -25 -12
-48 -26z"/>
<path d="M2328 3256 c-37 -20 -38 -23 -38 -77 0 -56 0 -57 43 -82 l42 -25 48
25 c47 26 47 26 47 79 0 51 -1 53 -44 78 -52 30 -50 30 -98 2z"/>
<path d="M2535 3257 c-38 -22 -40 -25 -43 -79 l-3 -56 46 -25 45 -26 45 26
c45 25 45 25 45 78 0 53 -1 55 -43 80 -24 14 -46 25 -48 25 -2 0 -22 -11 -44
-23z"/>
<path d="M2733 3254 c-42 -24 -43 -26 -43 -78 0 -53 0 -53 48 -79 l47 -25 43
25 c41 25 42 26 42 79 0 52 -1 55 -40 79 -22 14 -43 25 -47 25 -5 0 -27 -12
-50 -26z"/>
<path d="M2933 3254 c-42 -25 -43 -28 -43 -78 0 -51 0 -51 48 -78 l49 -27 46
29 c46 29 47 31 47 79 0 48 -1 50 -44 75 -25 14 -48 26 -53 26 -4 -1 -27 -12
-50 -26z"/>
<path d="M3138 3256 c-37 -20 -38 -23 -38 -77 0 -56 0 -57 43 -82 l42 -25 48
25 c47 26 47 26 47 79 0 52 -1 54 -43 79 -51 29 -51 29 -99 1z"/>
<path d="M3345 3257 c-38 -22 -40 -25 -43 -79 l-3 -56 46 -25 45 -26 45 26 46
25 -3 56 c-3 54 -5 57 -43 79 -22 12 -42 23 -45 23 -3 0 -23 -11 -45 -23z"/>
<path d="M3543 3254 c-42 -24 -43 -26 -43 -78 0 -53 0 -53 48 -79 l47 -25 43
25 c42 25 42 26 42 82 0 56 0 56 -42 79 -24 12 -45 22 -48 22 -3 0 -24 -12
-47 -26z"/>
<path d="M3743 3254 c-41 -25 -43 -28 -43 -75 0 -48 1 -50 47 -79 l46 -29 49
27 c48 27 48 27 48 79 0 50 -1 52 -44 77 -25 14 -48 26 -53 26 -4 -1 -27 -12
-50 -26z"/>
<path d="M3948 3254 c-36 -23 -38 -27 -38 -78 0 -53 1 -54 43 -79 l42 -25 48
25 c47 26 47 26 47 79 0 52 -1 54 -43 79 -53 30 -52 30 -99 -1z"/>
<path d="M4153 3254 c-42 -25 -43 -26 -43 -79 0 -53 0 -54 45 -78 l45 -26 45
26 46 25 -3 56 c-3 54 -5 57 -43 79 -22 12 -42 23 -45 23 -3 0 -24 -12 -47
-26z"/>
<path d="M4353 3254 c-42 -25 -43 -27 -43 -78 0 -53 0 -53 48 -79 l47 -26 48
30 c46 28 47 30 47 78 0 48 -1 50 -46 75 -26 14 -49 26 -53 26 -3 -1 -25 -12
-48 -26z"/>
<path d="M0 3180 c0 -38 4 -70 8 -70 20 0 32 28 32 72 0 37 -4 50 -20 58 -19
10 -20 8 -20 -60z"/>
<path d="M4526 3237 c-26 -19 -19 -105 12 -125 l22 -14 0 76 c0 78 -4 85 -34
63z"/>
<path d="M21 3094 c-18 -13 -21 -25 -21 -95 0 -74 2 -80 24 -91 21 -9 32 -6
70 16 45 26 46 28 46 79 0 52 0 52 -49 79 -44 24 -50 25 -70 12z"/>
<path d="M406 3081 l-47 -26 3 -55 c3 -53 4 -55 46 -78 l43 -24 45 23 c44 24
44 24 44 79 0 54 -1 56 -43 81 l-44 27 -47 -27z"/>
<path d="M607 3079 c-46 -28 -47 -30 -47 -79 0 -48 1 -50 46 -76 l47 -28 46
26 c44 25 46 29 49 77 3 53 4 53 -83 103 -6 4 -32 -7 -58 -23z"/>
<path d="M813 3083 c-43 -24 -43 -25 -43 -81 l0 -57 44 -24 44 -24 46 27 c45
26 46 28 46 79 0 52 0 52 -48 78 l-47 26 -42 -24z"/>
<path d="M1216 3081 l-47 -26 3 -55 c3 -53 4 -55 47 -79 l44 -24 43 24 c44 24
44 24 44 80 0 57 0 57 -44 82 l-44 24 -46 -26z"/>
<path d="M1417 3079 c-46 -28 -47 -30 -47 -79 0 -48 1 -50 47 -77 l46 -27 46
26 c44 24 46 27 49 76 3 54 4 53 -83 104 -6 4 -32 -7 -58 -23z"/>
<path d="M1623 3083 c-43 -24 -43 -25 -43 -81 0 -57 0 -57 44 -81 l43 -24 44
24 c43 24 44 26 47 79 l3 55 -48 26 -48 26 -42 -24z"/>
<path d="M2026 3081 l-47 -26 3 -55 c3 -53 4 -55 47 -79 l44 -24 43 24 c44 24
44 24 44 80 0 57 0 57 -44 82 l-44 24 -46 -26z"/>
<path d="M2227 3079 c-46 -28 -47 -30 -47 -79 0 -48 1 -50 47 -77 l46 -27 46
26 c44 24 46 27 49 76 3 54 4 53 -83 104 -6 4 -32 -7 -58 -23z"/>
<path d="M2433 3081 c-42 -25 -43 -27 -43 -81 0 -55 0 -56 44 -79 l43 -24 44
24 c43 24 44 26 47 79 l3 55 -48 26 -48 26 -42 -26z"/>
<path d="M2837 3081 c-46 -26 -47 -27 -47 -78 0 -51 1 -53 46 -79 l47 -28 46
27 c46 25 46 26 46 78 0 52 -1 53 -46 80 l-46 27 -46 -27z"/>
<path d="M3036 3079 c-47 -30 -47 -30 -44 -80 3 -48 5 -51 49 -77 l46 -26 47
28 c45 27 46 27 46 79 0 52 -1 52 -48 79 l-49 26 -47 -29z"/>
<path d="M3446 3081 l-47 -26 3 -55 c3 -53 4 -55 46 -78 l43 -24 45 23 c44 24
44 24 44 79 0 54 -1 56 -43 81 l-44 27 -47 -27z"/>
<path d="M3647 3079 c-46 -28 -47 -30 -47 -79 0 -48 1 -50 46 -76 l47 -28 46
26 c44 25 46 29 49 77 3 53 4 53 -83 103 -6 4 -32 -7 -58 -23z"/>
<path d="M3853 3083 c-43 -24 -43 -25 -43 -81 l0 -57 44 -24 44 -24 46 27 c45
26 46 28 46 79 0 52 0 52 -48 78 l-47 26 -42 -24z"/>
<path d="M4256 3081 l-47 -26 3 -55 c3 -53 4 -55 47 -79 l44 -24 43 24 c44 24
44 24 44 80 0 57 0 57 -44 82 l-44 24 -46 -26z"/>
<path d="M4457 3079 c-46 -28 -47 -30 -47 -79 0 -48 1 -50 45 -76 41 -23 49
-25 75 -14 30 12 30 13 30 89 0 73 -1 77 -28 93 -27 16 -29 16 -75 -13z"/>
<path d="M198 3078 c-37 -21 -38 -24 -38 -77 0 -56 0 -56 44 -80 l45 -23 43
24 c42 23 43 25 46 78 3 55 2 55 -37 78 -49 27 -56 27 -103 0z"/>
<path d="M1008 3078 c-37 -21 -38 -24 -38 -77 0 -56 0 -56 43 -79 52 -27 49
-27 97 3 38 24 40 27 40 78 0 51 -1 54 -39 75 -48 27 -57 27 -103 0z"/>
<path d="M1818 3078 c-37 -21 -38 -24 -38 -77 l0 -56 45 -24 45 -24 45 24 45
24 0 56 c0 54 -1 56 -39 77 -48 27 -57 27 -103 0z"/>
<path d="M2628 3078 c-36 -21 -38 -24 -38 -75 0 -51 2 -54 40 -78 48 -30 45
-30 98 -3 42 23 42 23 42 79 0 54 -1 56 -39 77 -48 27 -57 27 -103 0z"/>
<path d="M3238 3078 c-37 -21 -38 -24 -38 -77 0 -56 0 -56 44 -80 l45 -23 43
24 c42 23 43 25 46 78 3 55 2 55 -37 78 -49 27 -56 27 -103 0z"/>
<path d="M4048 3078 c-37 -21 -38 -24 -38 -77 0 -56 0 -56 43 -79 52 -27 49
-27 97 3 38 24 40 27 40 78 0 51 -1 54 -39 75 -48 27 -57 27 -103 0z"/>
<path d="M105 2907 c-38 -22 -40 -25 -43 -79 l-3 -57 45 -26 44 -26 46 28 c45
27 46 29 46 79 0 51 -1 53 -44 78 -25 14 -46 26 -48 26 -2 0 -21 -11 -43 -23z"/>
<path d="M303 2904 c-42 -25 -43 -26 -43 -79 0 -52 1 -53 45 -79 l45 -27 45
27 c44 26 45 27 45 80 0 52 -1 54 -43 79 -24 14 -46 25 -48 25 -2 0 -23 -12
-46 -26z"/>
<path d="M503 2904 c-42 -25 -43 -28 -43 -78 0 -50 1 -52 46 -79 l46 -28 44
26 45 26 -3 57 c-3 54 -5 57 -43 79 -22 12 -42 23 -45 22 -3 0 -24 -11 -47
-25z"/>
<path d="M703 2903 c-42 -24 -43 -26 -43 -76 0 -52 0 -52 48 -79 l47 -27 48
26 c47 26 47 27 47 79 0 52 0 53 -46 78 -26 14 -49 26 -53 25 -3 -1 -25 -12
-48 -26z"/>
<path d="M915 2907 c-38 -22 -40 -25 -43 -79 l-3 -56 45 -26 44 -26 46 26 c46
26 46 26 46 79 0 52 -1 54 -44 79 -25 14 -46 26 -48 26 -2 0 -21 -11 -43 -23z"/>
<path d="M1113 2904 c-42 -25 -43 -26 -43 -79 0 -53 0 -53 46 -79 l46 -26 44
26 c43 26 44 27 44 80 0 52 -1 54 -43 79 -24 14 -46 25 -48 25 -2 0 -23 -12
-46 -26z"/>
<path d="M1313 2904 c-42 -25 -43 -27 -43 -78 0 -53 0 -53 48 -79 l49 -27 47
30 c46 30 47 31 44 77 -3 42 -7 50 -43 75 -22 15 -44 27 -50 27 -5 0 -29 -11
-52 -25z"/>
<path d="M1513 2902 c-41 -25 -43 -29 -43 -75 0 -46 2 -49 47 -77 l46 -30 49
27 c48 26 48 26 48 79 0 51 -1 53 -44 78 -25 14 -48 26 -53 25 -4 0 -27 -13
-50 -27z"/>
<path d="M1723 2904 c-42 -25 -43 -26 -43 -79 0 -52 1 -54 44 -79 l44 -26 46
26 c46 26 46 26 46 79 0 53 -1 55 -43 80 -24 14 -46 25 -48 25 -2 0 -23 -12
-46 -26z"/>
<path d="M1923 2904 c-42 -25 -43 -27 -43 -79 0 -53 0 -53 46 -79 l46 -26 44
26 45 26 -3 56 c-3 54 -5 57 -43 79 -22 12 -42 23 -45 22 -3 0 -24 -11 -47
-25z"/>
<path d="M2123 2903 c-42 -24 -43 -26 -43 -77 l0 -53 48 -26 49 -27 46 30 c46
29 47 31 47 79 0 48 -1 50 -46 75 -26 14 -49 26 -53 25 -3 -1 -25 -12 -48 -26z"/>
<path d="M2335 2907 c-38 -22 -40 -25 -43 -79 l-3 -56 43 -26 42 -25 48 26
c48 26 48 26 48 79 0 51 -1 53 -44 78 -25 14 -46 26 -48 26 -2 0 -21 -11 -43
-23z"/>
<path d="M2533 2904 c-42 -25 -43 -26 -43 -79 0 -52 1 -54 44 -79 l44 -26 46
26 c46 26 46 26 46 79 0 53 -1 55 -43 80 -24 14 -46 25 -48 25 -2 0 -23 -12
-46 -26z"/>
<path d="M2733 2904 c-42 -25 -43 -27 -43 -79 0 -53 0 -53 46 -79 l46 -26 44
26 45 26 -3 56 c-3 54 -5 57 -43 79 -22 12 -42 23 -45 22 -3 0 -24 -11 -47
-25z"/>
<path d="M2933 2903 c-42 -24 -43 -26 -43 -77 0 -52 0 -53 47 -79 l48 -26 47
27 c48 27 48 27 48 79 0 51 -1 52 -46 77 -26 14 -49 26 -53 25 -3 -1 -25 -12
-48 -26z"/>
<path d="M3145 2907 c-38 -22 -40 -25 -43 -79 l-3 -57 45 -26 44 -26 46 28
c45 27 46 29 46 79 0 51 -1 53 -44 78 -25 14 -46 26 -48 26 -2 0 -21 -11 -43
-23z"/>
<path d="M3343 2904 c-42 -25 -43 -26 -43 -79 0 -52 1 -53 45 -79 l45 -27 45
27 c44 26 45 27 45 80 0 52 -1 54 -43 79 -24 14 -46 25 -48 25 -2 0 -23 -12
-46 -26z"/>
<path d="M3543 2904 c-42 -25 -43 -28 -43 -78 0 -50 1 -52 46 -79 l46 -28 44
26 45 26 -3 57 c-3 54 -5 57 -43 79 -22 12 -42 23 -45 22 -3 0 -24 -11 -47
-25z"/>
<path d="M3743 2903 c-42 -24 -43 -26 -43 -76 0 -52 0 -52 48 -79 l47 -27 48
26 c47 26 47 27 47 79 0 52 0 53 -46 78 -26 14 -49 26 -53 25 -3 -1 -25 -12
-48 -26z"/>
<path d="M3955 2907 c-38 -22 -40 -25 -43 -79 l-3 -56 45 -26 44 -26 46 26
c46 26 46 26 46 79 0 52 -1 54 -44 79 -25 14 -46 26 -48 26 -2 0 -21 -11 -43
-23z"/>
<path d="M4153 2904 c-42 -25 -43 -26 -43 -79 0 -53 0 -53 46 -79 l46 -26 44
26 c43 26 44 27 44 80 0 52 -1 54 -43 79 -24 14 -46 25 -48 25 -2 0 -23 -12
-46 -26z"/>
<path d="M4353 2904 c-42 -25 -43 -27 -43 -78 0 -53 0 -53 48 -79 l49 -27 47
30 c46 30 47 31 44 77 -3 42 -7 50 -43 75 -22 15 -44 27 -50 27 -5 0 -29 -11
-52 -25z"/>
<path d="M0 2830 c0 -38 2 -70 4 -70 27 0 36 16 36 66 0 43 -4 55 -20 64 -19
10 -20 8 -20 -60z"/>
<path d="M4527 2886 c-27 -21 -20 -103 11 -124 l22 -14 0 76 c0 42 -3 76 -7
76 -5 0 -16 -7 -26 -14z"/>
<path d="M17 2739 c-14 -8 -17 -24 -17 -90 0 -74 2 -80 24 -90 20 -10 32 -7
68 12 41 23 43 26 46 76 3 51 2 53 -37 78 -44 27 -57 30 -84 14z"/>
<path d="M198 2728 c-37 -21 -38 -24 -38 -78 0 -55 0 -55 44 -80 l44 -24 46
25 46 24 0 55 c0 54 -1 56 -40 78 -48 27 -55 27 -102 0z"/>
<path d="M398 2727 c-36 -21 -38 -24 -38 -77 l0 -55 46 -24 46 -25 44 24 c44
25 44 25 44 80 0 55 -1 57 -39 78 -48 27 -56 27 -103 -1z"/>
<path d="M597 2724 c-37 -24 -38 -27 -35 -77 3 -51 4 -53 49 -76 l46 -25 47
28 47 27 -3 52 c-3 48 -5 53 -43 74 -50 28 -61 28 -108 -3z"/>
<path d="M808 2728 c-37 -21 -38 -24 -38 -79 0 -56 0 -56 43 -79 l44 -23 44
24 c42 23 44 26 47 76 3 51 2 53 -37 78 -49 30 -56 31 -103 3z"/>
<path d="M1008 2727 c-36 -21 -38 -24 -38 -77 0 -55 0 -56 44 -80 l44 -24 46
25 46 24 0 55 c0 54 -1 56 -40 78 -48 27 -55 27 -102 -1z"/>
<path d="M1208 2726 c-36 -20 -38 -23 -38 -73 0 -51 2 -54 40 -78 48 -31 51
-31 100 -2 39 21 40 23 40 78 0 54 -1 56 -39 77 -46 26 -55 26 -103 -2z"/>
<path d="M1415 2727 c-39 -22 -40 -24 -40 -76 0 -53 0 -54 46 -79 l46 -26 47
28 47 27 -3 52 c-3 48 -5 53 -43 74 -49 28 -51 28 -100 0z"/>
<path d="M1618 2728 c-37 -21 -38 -24 -38 -78 0 -55 0 -56 44 -79 l43 -24 44
24 c43 24 44 26 47 79 l3 55 -43 23 c-52 27 -54 27 -100 0z"/>
<path d="M1818 2727 c-36 -21 -38 -24 -38 -77 l0 -55 45 -24 45 -24 45 24 45
24 0 55 c0 54 -1 56 -40 78 -48 27 -55 27 -102 -1z"/>
<path d="M2017 2726 c-37 -21 -38 -22 -35 -76 3 -53 4 -55 47 -79 l44 -24 43
24 c44 23 44 24 44 79 0 55 -1 57 -39 78 -46 26 -55 26 -104 -2z"/>
<path d="M2225 2727 c-39 -22 -40 -24 -40 -76 0 -53 0 -54 46 -79 l46 -26 46
27 c46 27 47 29 47 77 0 47 -2 51 -40 75 -48 30 -55 31 -105 2z"/>
<path d="M2428 2728 c-37 -21 -38 -24 -38 -77 0 -55 1 -57 40 -78 49 -29 52
-29 100 2 38 24 40 27 40 78 0 50 -2 53 -40 75 -48 27 -55 27 -102 0z"/>
<path d="M2628 2727 c-36 -21 -38 -24 -38 -77 l0 -55 46 -24 46 -25 44 24 c44
25 44 25 44 80 0 55 -1 57 -39 78 -48 27 -56 27 -103 -1z"/>
<path d="M2827 2724 c-37 -24 -38 -27 -35 -77 3 -51 4 -53 49 -76 l46 -25 47
28 47 27 -3 52 c-3 48 -5 53 -43 74 -50 28 -61 28 -108 -3z"/>
<path d="M3035 2727 c-38 -21 -40 -26 -43 -74 l-3 -52 47 -27 47 -28 46 25
c45 23 46 25 49 76 3 51 2 53 -37 78 -49 30 -55 31 -106 2z"/>
<path d="M3238 2728 c-37 -21 -38 -24 -38 -78 0 -55 0 -55 44 -80 l44 -24 46
25 46 24 0 55 c0 54 -1 56 -40 78 -48 27 -55 27 -102 0z"/>
<path d="M3438 2727 c-36 -21 -38 -24 -38 -77 l0 -55 46 -24 46 -25 44 24 c44
25 44 25 44 80 0 55 -1 57 -39 78 -48 27 -56 27 -103 -1z"/>
<path d="M3637 2724 c-37 -24 -38 -27 -35 -77 3 -51 4 -53 49 -76 l46 -25 47
28 47 27 -3 52 c-3 48 -5 53 -43 74 -50 28 -61 28 -108 -3z"/>
<path d="M3848 2728 c-37 -21 -38 -24 -38 -79 0 -56 0 -56 43 -79 l44 -23 44
24 c42 23 44 26 47 76 3 51 2 53 -37 78 -49 30 -56 31 -103 3z"/>
<path d="M4048 2727 c-36 -21 -38 -24 -38 -77 0 -55 0 -56 44 -80 l44 -24 46
25 46 24 0 55 c0 54 -1 56 -40 78 -48 27 -55 27 -102 -1z"/>
<path d="M4248 2726 c-36 -20 -38 -23 -38 -73 0 -51 2 -54 40 -78 48 -31 51
-31 100 -2 39 21 40 23 40 78 0 54 -1 56 -39 77 -46 26 -55 26 -103 -2z"/>
<path d="M4455 2727 c-38 -21 -40 -26 -43 -74 l-3 -52 46 -26 c41 -24 49 -26
75 -15 30 12 30 13 30 90 0 73 -1 77 -25 88 -34 15 -33 16 -80 -11z"/>
<path d="M103 2554 c-42 -25 -43 -26 -43 -79 0 -53 1 -55 44 -80 l43 -25 47
26 c46 26 46 26 46 79 0 52 -1 54 -44 79 -25 14 -46 26 -48 26 -2 0 -22 -12
-45 -26z"/>
<path d="M303 2554 c-42 -25 -43 -27 -43 -79 0 -52 1 -53 45 -79 l45 -27 45
27 c44 26 45 27 45 80 0 52 -1 54 -43 79 -24 14 -46 25 -48 25 -2 -1 -23 -12
-46 -26z"/>
<path d="M503 2553 c-42 -24 -43 -26 -43 -78 0 -53 0 -53 46 -79 l47 -26 44
26 44 25 -3 57 c-3 54 -5 57 -43 79 -22 12 -42 22 -45 22 -3 -1 -24 -12 -47
-26z"/>
<path d="M708 2553 c-48 -26 -48 -27 -48 -78 0 -52 0 -52 49 -79 l49 -26 46
27 c45 27 46 29 46 80 0 51 -1 52 -46 77 -26 14 -47 26 -48 26 0 0 -22 -12
-48 -27z"/>
<path d="M913 2554 c-42 -25 -43 -26 -43 -79 0 -54 1 -54 45 -80 l44 -26 46
26 c44 27 45 28 45 80 0 52 -1 54 -44 79 -25 14 -46 26 -48 26 -2 0 -22 -12
-45 -26z"/>
<path d="M1113 2554 c-42 -25 -43 -27 -43 -79 0 -52 1 -53 45 -80 l46 -26 44
26 c44 26 45 26 45 80 0 53 -1 55 -43 80 -24 14 -46 25 -48 25 -2 -1 -23 -12
-46 -26z"/>
<path d="M1313 2553 c-42 -24 -43 -26 -43 -78 0 -53 0 -53 46 -79 44 -24 47
-25 77 -10 55 28 67 44 67 89 0 27 -6 47 -17 57 -17 15 -79 49 -85 47 -2 -1
-22 -12 -45 -26z"/>
<path d="M1518 2553 c-47 -26 -48 -28 -48 -73 0 -51 10 -65 67 -94 31 -16 34
-15 78 11 44 27 45 29 45 80 0 51 -1 52 -46 77 -26 14 -47 26 -48 26 0 0 -22
-12 -48 -27z"/>
<path d="M1723 2554 c-42 -25 -43 -26 -43 -79 0 -54 1 -54 45 -80 l44 -26 46
26 c44 27 45 28 45 80 0 52 -1 54 -44 79 -25 14 -46 26 -48 26 -2 0 -22 -12
-45 -26z"/>
<path d="M1923 2554 c-42 -25 -43 -27 -43 -79 0 -52 1 -53 45 -80 l46 -26 44
26 c44 26 45 26 45 80 0 53 -1 55 -43 80 -24 14 -46 25 -48 25 -2 -1 -23 -12
-46 -26z"/>
<path d="M2123 2553 c-42 -24 -43 -26 -43 -76 0 -51 1 -53 46 -80 l46 -27 49
26 c49 27 49 27 49 79 0 52 0 52 -49 78 -27 15 -50 27 -52 26 -2 -1 -23 -12
-46 -26z"/>
<path d="M2335 2557 c-38 -22 -40 -25 -43 -79 l-3 -57 44 -25 44 -26 47 26
c46 26 46 26 46 79 0 53 0 53 -46 79 -26 14 -47 26 -48 26 0 0 -19 -11 -41
-23z"/>
<path d="M2533 2554 c-42 -25 -43 -26 -43 -79 0 -52 1 -53 45 -79 l45 -27 45
27 c44 26 45 27 45 79 0 52 -1 54 -44 79 -25 14 -46 26 -48 26 -2 0 -22 -12
-45 -26z"/>
<path d="M2733 2554 c-42 -25 -43 -27 -43 -79 0 -53 0 -53 46 -79 l47 -26 43
25 c43 25 44 27 44 80 0 53 -1 55 -43 80 -24 14 -46 25 -48 25 -2 -1 -23 -12
-46 -26z"/>
<path d="M2933 2552 c-41 -26 -43 -29 -43 -78 0 -50 0 -51 47 -77 l48 -26 47
26 c48 26 48 27 48 77 0 50 -1 52 -45 79 -25 15 -49 27 -53 26 -4 0 -26 -13
-49 -27z"/>
<path d="M3143 2554 c-42 -25 -43 -26 -43 -79 0 -53 1 -55 44 -80 l43 -25 47
26 c46 26 46 26 46 79 0 52 -1 54 -44 79 -25 14 -46 26 -48 26 -2 0 -22 -12
-45 -26z"/>
<path d="M3343 2554 c-42 -25 -43 -27 -43 -79 0 -52 1 -53 45 -79 l45 -27 45
27 c44 26 45 27 45 80 0 52 -1 54 -43 79 -24 14 -46 25 -48 25 -2 -1 -23 -12
-46 -26z"/>
<path d="M3543 2553 c-42 -24 -43 -26 -43 -78 0 -53 0 -53 46 -79 l47 -26 44
26 44 25 -3 57 c-3 54 -5 57 -43 79 -22 12 -42 22 -45 22 -3 -1 -24 -12 -47
-26z"/>
<path d="M3748 2553 c-48 -26 -48 -27 -48 -78 0 -52 0 -52 49 -79 l49 -26 46
27 c45 27 46 29 46 80 0 51 -1 52 -46 77 -26 14 -47 26 -48 26 0 0 -22 -12
-48 -27z"/>
<path d="M3953 2554 c-42 -25 -43 -26 -43 -79 0 -54 1 -54 45 -80 l44 -26 46
26 c44 27 45 28 45 80 0 52 -1 54 -44 79 -25 14 -46 26 -48 26 -2 0 -22 -12
-45 -26z"/>
<path d="M4153 2554 c-42 -25 -43 -27 -43 -79 0 -52 1 -53 45 -80 l46 -26 44
26 c44 26 45 26 45 80 0 53 -1 55 -43 80 -24 14 -46 25 -48 25 -2 -1 -23 -12
-46 -26z"/>
<path d="M4353 2553 c-42 -24 -43 -26 -43 -78 0 -53 0 -53 46 -79 44 -24 47
-25 77 -10 55 28 67 44 67 89 0 27 -6 47 -17 57 -17 15 -79 49 -85 47 -2 -1
-22 -12 -45 -26z"/>
<path d="M0 2475 c0 -73 1 -75 20 -63 29 18 29 108 0 126 -19 12 -20 10 -20
-63z"/>
<path d="M4528 2536 c-25 -19 -25 -97 0 -119 10 -10 22 -17 25 -17 4 0 7 34 7
75 0 41 -3 75 -7 75 -5 0 -16 -7 -25 -14z"/>
<path d="M16 2387 c-14 -10 -16 -26 -14 -92 3 -75 4 -80 29 -89 20 -7 34 -3
68 18 41 27 42 28 39 79 -3 49 -5 53 -43 74 -47 26 -55 27 -79 10z"/>
<path d="M198 2377 c-36 -21 -38 -24 -38 -77 0 -55 0 -55 45 -80 l45 -25 45
25 c45 25 45 25 45 80 0 55 0 55 -42 78 -52 27 -53 27 -100 -1z"/>
<path d="M398 2376 c-37 -20 -38 -23 -38 -76 l0 -55 46 -24 46 -25 44 23 44
24 0 56 c0 55 -1 57 -40 79 -46 26 -54 26 -102 -2z"/>
<path d="M605 2377 c-39 -22 -40 -24 -40 -77 l0 -55 46 -24 46 -24 44 24 c42
23 44 26 47 76 3 51 3 52 -41 77 -53 31 -52 31 -102 3z"/>
<path d="M808 2378 c-37 -21 -38 -24 -38 -78 0 -55 1 -57 39 -78 49 -28 53
-27 102 3 39 25 40 27 37 78 -3 49 -5 53 -43 74 -49 28 -51 28 -97 1z"/>
<path d="M1008 2377 c-36 -21 -38 -24 -38 -77 0 -55 0 -55 45 -80 l45 -25 45
25 c45 25 45 25 45 80 0 55 0 55 -42 78 -52 27 -53 27 -100 -1z"/>
<path d="M1208 2376 c-37 -20 -38 -23 -38 -76 l0 -55 46 -24 46 -25 44 23 44
24 0 56 c0 55 -1 57 -40 79 -46 26 -54 26 -102 -2z"/>
<path d="M1415 2377 c-39 -22 -40 -24 -40 -77 l0 -55 46 -24 46 -24 44 24 c42
23 44 26 47 76 3 51 3 52 -41 77 -53 31 -52 31 -102 3z"/>
<path d="M1618 2378 c-37 -21 -38 -24 -38 -79 l0 -56 44 -24 44 -23 46 25 c46
24 46 24 46 76 0 51 -2 54 -40 78 -48 30 -55 30 -102 3z"/>
<path d="M1818 2377 c-36 -21 -38 -24 -38 -77 0 -55 0 -55 45 -80 l45 -25 45
25 c45 25 45 25 45 80 0 54 -1 56 -40 78 -48 27 -55 27 -102 -1z"/>
<path d="M2018 2374 c-36 -23 -38 -28 -38 -74 0 -47 2 -51 40 -75 48 -30 52
-31 101 -3 38 21 39 23 39 78 0 55 -1 57 -39 78 -48 27 -57 27 -103 -4z"/>
<path d="M2222 2374 c-43 -26 -43 -26 -40 -77 3 -50 4 -53 49 -76 l46 -24 44
24 c44 24 44 25 44 79 0 53 -1 55 -40 77 -50 28 -51 28 -103 -3z"/>
<path d="M2428 2377 c-37 -21 -38 -24 -38 -78 l0 -56 44 -24 44 -23 46 25 46
24 0 55 c0 55 0 55 -42 78 -52 27 -53 27 -100 -1z"/>
<path d="M2628 2376 c-37 -20 -38 -23 -38 -76 0 -55 0 -55 45 -80 l45 -25 45
25 c45 25 45 25 45 80 0 54 -1 56 -40 78 -46 26 -54 26 -102 -2z"/>
<path d="M2835 2377 c-38 -21 -40 -25 -43 -74 -3 -51 -2 -53 37 -78 50 -31 54
-31 108 0 41 25 43 28 43 75 0 47 -2 50 -43 75 -53 30 -52 30 -102 2z"/>
<path d="M3033 2374 c-41 -24 -43 -27 -43 -74 0 -47 2 -50 43 -75 54 -31 58
-31 108 0 39 25 40 27 37 78 -3 49 -5 53 -43 74 -50 28 -51 28 -102 -3z"/>
<path d="M3238 2377 c-36 -21 -38 -24 -38 -77 0 -55 0 -55 45 -80 l45 -25 45
25 c45 25 45 25 45 80 0 55 0 55 -42 78 -52 27 -53 27 -100 -1z"/>
<path d="M3438 2376 c-37 -20 -38 -23 -38 -76 l0 -55 46 -24 46 -25 44 23 44
24 0 56 c0 55 -1 57 -40 79 -46 26 -54 26 -102 -2z"/>
<path d="M3645 2377 c-39 -22 -40 -24 -40 -77 l0 -55 46 -24 46 -24 44 24 c42
23 44 26 47 76 3 51 3 52 -41 77 -53 31 -52 31 -102 3z"/>
<path d="M3848 2378 c-37 -21 -38 -24 -38 -78 0 -55 1 -57 39 -78 49 -28 53
-27 102 3 39 25 40 27 37 78 -3 49 -5 53 -43 74 -49 28 -51 28 -97 1z"/>
<path d="M4048 2377 c-36 -21 -38 -24 -38 -77 0 -55 0 -55 45 -80 l45 -25 45
25 c45 25 45 25 45 80 0 55 0 55 -42 78 -52 27 -53 27 -100 -1z"/>
<path d="M4248 2376 c-37 -20 -38 -23 -38 -76 l0 -55 46 -24 46 -25 44 23 44
24 0 56 c0 55 -1 57 -40 79 -46 26 -54 26 -102 -2z"/>
<path d="M4455 2377 c-39 -22 -40 -24 -40 -77 0 -54 0 -55 43 -78 38 -21 47
-23 72 -12 30 12 30 14 30 90 0 73 -1 77 -25 88 -34 15 -33 16 -80 -11z"/>
<path d="M102 2204 l-43 -26 3 -56 c3 -55 4 -57 45 -80 l42 -23 46 26 c44 27
45 28 45 80 0 53 0 53 -46 79 -26 14 -47 26 -48 26 0 0 -20 -12 -44 -26z"/>
<path d="M303 2204 c-42 -25 -43 -27 -43 -80 0 -53 1 -53 45 -80 l45 -26 45
26 c44 27 45 27 45 80 0 53 -1 54 -44 80 -25 14 -46 26 -48 26 -2 -1 -22 -12
-45 -26z"/>
<path d="M503 2203 c-42 -24 -43 -26 -43 -78 0 -52 1 -53 45 -80 l46 -26 42
23 c41 23 42 25 45 80 l3 57 -44 25 c-24 14 -46 26 -48 25 -2 -1 -23 -12 -46
-26z"/>
<path d="M707 2203 c-47 -26 -47 -27 -47 -77 0 -50 1 -52 47 -79 l46 -29 46
26 c45 24 46 26 49 79 l3 53 -48 27 -48 26 -48 -26z"/>
<path d="M913 2204 c-42 -25 -43 -26 -43 -79 0 -54 1 -54 45 -80 l44 -26 46
26 c44 27 45 28 45 80 0 53 0 53 -46 79 -26 14 -47 26 -48 26 0 0 -20 -12 -43
-26z"/>
<path d="M1113 2204 c-42 -25 -43 -27 -43 -79 0 -52 1 -53 45 -80 l46 -26 44
26 c44 25 45 27 45 79 0 53 -1 54 -44 80 -25 14 -46 26 -48 26 -2 -1 -22 -12
-45 -26z"/>
<path d="M1313 2202 c-42 -26 -43 -28 -43 -79 0 -51 1 -52 46 -77 44 -24 47
-25 77 -10 56 28 67 44 67 91 0 41 -3 45 -47 73 -26 17 -49 30 -52 29 -4 0
-25 -13 -48 -27z"/>
<path d="M1517 2200 c-45 -29 -47 -31 -47 -78 0 -48 1 -49 49 -75 l49 -27 46
26 c46 25 46 26 46 78 0 53 0 53 -48 79 l-49 27 -46 -30z"/>
<path d="M1723 2204 c-42 -25 -43 -27 -43 -80 0 -52 1 -54 45 -79 l44 -26 46
26 c44 27 45 28 45 80 0 53 0 53 -46 79 -26 14 -47 26 -48 26 0 -1 -20 -12
-43 -26z"/>
<path d="M1923 2203 c-42 -24 -43 -26 -43 -78 0 -52 1 -53 45 -80 l46 -26 44
26 c44 25 45 27 45 79 0 53 -1 54 -44 80 -25 14 -46 26 -48 25 -2 -1 -22 -12
-45 -26z"/>
<path d="M2127 2202 l-48 -26 3 -54 c3 -52 4 -54 49 -78 l46 -26 46 29 c46 27
47 29 47 78 0 49 -1 50 -48 77 l-47 27 -48 -27z"/>
<path d="M2332 2204 l-43 -26 3 -56 c3 -55 4 -57 45 -80 l42 -23 46 26 c44 26
45 28 45 79 0 50 -1 52 -45 79 -25 15 -47 27 -48 27 -1 0 -21 -12 -45 -26z"/>
<path d="M2533 2204 c-42 -25 -43 -27 -43 -80 0 -53 1 -53 45 -80 l45 -26 45
26 c44 27 45 27 45 80 0 53 -1 54 -44 80 -25 14 -46 26 -48 26 -2 -1 -22 -12
-45 -26z"/>
<path d="M2733 2203 c-42 -24 -43 -26 -43 -78 0 -52 1 -53 45 -80 l46 -26 42
23 c41 23 42 25 45 80 l3 57 -44 25 c-24 14 -46 26 -48 25 -2 -1 -23 -12 -46
-26z"/>
<path d="M2937 2202 l-48 -26 3 -54 c3 -52 4 -54 48 -78 l46 -25 47 26 c47 27
47 27 47 79 0 53 0 53 -48 79 l-47 26 -48 -27z"/>
<path d="M3142 2204 l-43 -26 3 -56 c3 -55 4 -57 45 -80 l42 -23 46 26 c44 27
45 28 45 80 0 53 0 53 -46 79 -26 14 -47 26 -48 26 0 0 -20 -12 -44 -26z"/>
<path d="M3343 2204 c-42 -25 -43 -27 -43 -80 0 -53 1 -53 45 -80 l45 -26 45
26 c44 27 45 27 45 80 0 53 -1 54 -44 80 -25 14 -46 26 -48 26 -2 -1 -22 -12
-45 -26z"/>
<path d="M3543 2203 c-42 -24 -43 -26 -43 -78 0 -52 1 -53 45 -80 l46 -26 42
23 c41 23 42 25 45 80 l3 57 -44 25 c-24 14 -46 26 -48 25 -2 -1 -23 -12 -46
-26z"/>
<path d="M3747 2203 c-47 -26 -47 -27 -47 -77 0 -50 1 -52 47 -79 l46 -29 46
26 c45 24 46 26 49 79 l3 53 -48 27 -48 26 -48 -26z"/>
<path d="M3953 2204 c-42 -25 -43 -26 -43 -79 0 -54 1 -54 45 -80 l44 -26 46
26 c44 27 45 28 45 80 0 53 0 53 -46 79 -26 14 -47 26 -48 26 0 0 -20 -12 -43
-26z"/>
<path d="M4153 2204 c-42 -25 -43 -27 -43 -79 0 -52 1 -53 45 -80 l46 -26 44
26 c44 25 45 27 45 79 0 53 -1 54 -44 80 -25 14 -46 26 -48 26 -2 -1 -22 -12
-45 -26z"/>
<path d="M4353 2202 c-42 -26 -43 -28 -43 -79 0 -51 1 -52 46 -77 44 -24 47
-25 77 -10 56 28 67 44 67 91 0 41 -3 45 -47 73 -26 17 -49 30 -52 29 -4 0
-25 -13 -48 -27z"/>
<path d="M0 2125 c0 -73 1 -75 20 -65 29 16 29 110 0 128 -19 12 -20 10 -20
-63z"/>
<path d="M4533 2185 c-32 -23 -33 -104 -2 -123 12 -7 23 -11 25 -9 3 3 4 37 2
76 l-3 71 -22 -15z"/>
<path d="M17 2039 c-14 -8 -17 -24 -17 -88 0 -71 2 -80 23 -94 22 -14 27 -13
70 14 46 28 47 30 47 79 0 47 -1 50 -43 75 -49 28 -54 29 -80 14z"/>
<path d="M198 2027 c-37 -21 -38 -24 -38 -78 l0 -56 45 -24 45 -24 45 25 c45
24 45 25 45 77 0 51 -2 54 -40 78 -48 30 -55 30 -102 2z"/>
<path d="M398 2024 c-36 -23 -38 -27 -38 -77 0 -52 0 -53 45 -77 l45 -25 45
24 45 24 0 56 c0 55 -1 57 -40 79 -48 27 -56 27 -102 -4z"/>
<path d="M603 2024 c-41 -24 -43 -27 -43 -75 0 -48 1 -50 46 -78 l47 -29 46
27 c44 26 46 29 49 78 3 51 3 52 -41 77 -24 14 -48 26 -53 26 -5 0 -28 -12
-51 -26z"/>
<path d="M808 2027 c-37 -21 -38 -24 -38 -79 0 -56 0 -56 43 -80 l43 -24 47
25 47 26 -2 55 c-3 52 -5 55 -43 77 -49 28 -51 28 -97 0z"/>
<path d="M1008 2026 c-37 -20 -38 -23 -38 -77 l0 -56 45 -24 45 -24 45 25 c45
25 45 25 45 80 0 55 0 55 -42 78 -51 26 -52 26 -100 -2z"/>
<path d="M1215 2027 c-38 -22 -40 -25 -43 -77 l-3 -55 46 -25 45 -25 45 24 45
24 0 56 c0 55 -1 57 -40 79 -48 27 -46 27 -95 -1z"/>
<path d="M1413 2024 c-41 -24 -43 -27 -43 -74 0 -48 2 -51 42 -77 24 -14 47
-26 53 -26 6 0 29 12 53 26 40 26 42 29 42 77 0 47 -1 50 -43 75 -24 14 -48
25 -53 25 -5 0 -28 -12 -51 -26z"/>
<path d="M1618 2027 c-36 -21 -38 -24 -38 -77 0 -54 1 -56 43 -81 l44 -27 47
27 47 26 -3 55 c-3 52 -5 55 -43 77 -49 28 -51 28 -97 0z"/>
<path d="M1818 2026 c-37 -20 -38 -23 -38 -76 0 -55 0 -55 45 -80 l45 -25 45
24 45 24 0 56 c0 56 0 56 -42 79 -51 26 -52 26 -100 -2z"/>
<path d="M2025 2027 c-38 -22 -40 -25 -43 -77 l-2 -55 47 -26 47 -25 43 24
c43 24 43 24 43 80 0 56 -1 57 -40 80 -48 27 -46 27 -95 -1z"/>
<path d="M2223 2024 c-41 -24 -43 -27 -43 -74 0 -48 2 -51 42 -77 24 -14 47
-26 53 -26 6 0 29 12 53 26 40 26 42 29 42 77 0 47 -1 50 -43 75 -24 14 -48
25 -53 25 -5 0 -28 -12 -51 -26z"/>
<path d="M2428 2027 c-37 -21 -38 -24 -38 -78 l0 -56 45 -24 45 -24 45 25 46
25 -3 55 c-3 52 -5 55 -43 77 -49 28 -51 28 -97 0z"/>
<path d="M2628 2026 c-37 -20 -38 -23 -38 -76 0 -55 0 -55 45 -80 l45 -25 45
24 45 24 0 56 c0 56 0 56 -42 79 -51 26 -52 26 -100 -2z"/>
<path d="M2835 2027 c-38 -22 -40 -25 -43 -77 l-2 -55 47 -26 48 -26 45 27
c43 25 45 29 48 77 3 50 3 51 -42 77 -54 31 -51 31 -101 3z"/>
<path d="M3032 2024 c-43 -25 -43 -26 -40 -77 3 -49 5 -52 49 -78 l46 -27 47
29 c45 28 46 30 46 79 0 47 -1 50 -43 75 -24 14 -48 25 -53 25 -5 0 -28 -12
-52 -26z"/>
<path d="M3238 2027 c-37 -21 -38 -24 -38 -78 l0 -56 45 -24 45 -24 45 25 c45
24 45 25 45 77 0 51 -2 54 -40 78 -48 30 -55 30 -102 2z"/>
<path d="M3438 2024 c-36 -23 -38 -27 -38 -77 0 -52 0 -53 45 -77 l45 -25 45
24 45 24 0 56 c0 55 -1 57 -40 79 -48 27 -56 27 -102 -4z"/>
<path d="M3643 2024 c-41 -24 -43 -27 -43 -75 0 -48 1 -50 46 -78 l47 -29 46
27 c44 26 46 29 49 78 3 51 3 52 -41 77 -24 14 -48 26 -53 26 -5 0 -28 -12
-51 -26z"/>
<path d="M3848 2027 c-37 -21 -38 -24 -38 -79 0 -56 0 -56 43 -80 l43 -24 47
25 47 26 -2 55 c-3 52 -5 55 -43 77 -49 28 -51 28 -97 0z"/>
<path d="M4048 2026 c-37 -20 -38 -23 -38 -77 l0 -56 45 -24 45 -24 45 25 c45
25 45 25 45 80 0 55 0 55 -42 78 -51 26 -52 26 -100 -2z"/>
<path d="M4255 2027 c-38 -22 -40 -25 -43 -77 l-3 -55 46 -25 45 -25 45 24 45
24 0 56 c0 55 -1 57 -40 79 -48 27 -46 27 -95 -1z"/>
<path d="M4453 2024 c-41 -24 -43 -27 -43 -75 0 -48 1 -50 47 -78 46 -29 48
-29 75 -13 27 16 28 20 28 93 0 72 -1 76 -25 87 -34 16 -33 16 -82 -14z"/>
<path d="M103 1853 c-42 -25 -43 -26 -43 -79 0 -52 1 -54 42 -80 l42 -27 46
26 c44 25 45 27 48 79 l3 54 -48 26 -48 26 -42 -25z"/>
<path d="M303 1853 c-42 -24 -43 -26 -43 -78 0 -54 1 -54 45 -81 l45 -26 45
26 c44 27 45 27 45 81 0 53 0 53 -46 79 -26 14 -47 26 -48 25 0 -1 -20 -12
-43 -26z"/>
<path d="M507 1852 l-48 -26 3 -54 c3 -52 4 -54 48 -79 l46 -26 42 27 c43 27
43 27 40 82 -3 52 -5 56 -43 79 l-41 24 -47 -27z"/>
<path d="M706 1850 c-47 -30 -47 -30 -44 -81 3 -48 5 -51 49 -76 l47 -25 46
27 c45 26 46 28 46 78 0 52 0 52 -48 79 l-49 27 -47 -29z"/>
<path d="M912 1853 l-43 -26 3 -56 c3 -54 4 -56 46 -79 l42 -24 45 27 c44 25
45 27 45 78 0 51 -1 53 -45 80 -25 15 -47 27 -48 27 -1 -1 -21 -12 -45 -27z"/>
<path d="M1113 1853 c-42 -24 -43 -26 -43 -78 0 -54 1 -54 45 -80 l45 -27 42
24 c42 23 43 25 46 79 l3 57 -45 26 c-24 14 -46 26 -48 25 -2 -1 -22 -12 -45
-26z"/>
<path d="M1317 1853 c-47 -26 -47 -27 -47 -79 0 -51 1 -52 46 -79 l46 -27 42
23 c52 28 56 35 56 86 0 34 -5 45 -27 61 -60 41 -66 42 -116 15z"/>
<path d="M1516 1850 c-47 -30 -47 -30 -44 -81 3 -48 5 -51 49 -76 l47 -25 46
27 c45 27 46 28 46 79 0 53 0 53 -48 79 l-49 27 -47 -30z"/>
<path d="M1722 1853 l-43 -26 3 -56 c3 -54 4 -56 46 -79 l42 -24 45 27 c44 26
45 26 45 80 0 53 0 53 -46 79 -26 14 -47 26 -48 26 0 -1 -20 -12 -44 -27z"/>
<path d="M1923 1853 c-42 -24 -43 -26 -43 -78 0 -54 1 -54 45 -80 l45 -27 42
24 c42 23 43 25 46 79 l3 57 -45 26 c-24 14 -46 26 -48 25 -2 -1 -22 -12 -45
-26z"/>
<path d="M2127 1853 c-47 -26 -47 -27 -47 -79 0 -51 1 -52 46 -79 l46 -27 47
25 c44 25 46 28 49 75 3 45 0 52 -25 70 -60 42 -65 42 -116 15z"/>
<path d="M2332 1854 c-41 -25 -42 -26 -42 -82 l0 -57 44 -23 44 -24 46 27 c45
27 46 28 46 79 0 53 0 53 -48 79 l-48 26 -42 -25z"/>
<path d="M2532 1853 l-43 -26 3 -56 c3 -54 4 -56 46 -79 l42 -24 45 27 c44 26
45 26 45 80 0 53 0 53 -46 79 -26 14 -47 26 -48 26 0 -1 -20 -12 -44 -27z"/>
<path d="M2733 1852 c-42 -26 -43 -28 -43 -79 0 -51 1 -53 45 -78 l45 -27 42
24 c42 23 43 25 46 79 l3 57 -45 26 c-24 14 -46 26 -48 25 -2 0 -22 -13 -45
-27z"/>
<path d="M2937 1852 c-46 -27 -47 -28 -47 -79 0 -50 1 -52 46 -78 l46 -27 47
25 c45 25 46 27 49 79 l3 53 -48 27 -48 27 -48 -27z"/>
<path d="M3143 1853 c-42 -25 -43 -26 -43 -79 0 -52 1 -54 42 -80 l42 -27 46
26 c44 25 45 27 48 79 l3 54 -48 26 -48 26 -42 -25z"/>
<path d="M3343 1853 c-42 -24 -43 -26 -43 -78 0 -54 1 -54 45 -81 l45 -26 45
26 c44 27 45 27 45 81 0 53 0 53 -46 79 -26 14 -47 26 -48 25 0 -1 -20 -12
-43 -26z"/>
<path d="M3547 1852 l-48 -26 3 -54 c3 -52 4 -54 48 -79 l46 -26 42 27 c43 27
43 27 40 82 -3 52 -5 56 -43 79 l-41 24 -47 -27z"/>
<path d="M3746 1850 c-47 -30 -47 -30 -44 -81 3 -48 5 -51 49 -76 l47 -25 46
27 c45 26 46 28 46 78 0 52 0 52 -48 79 l-49 27 -47 -29z"/>
<path d="M3952 1853 l-43 -26 3 -56 c3 -54 4 -56 46 -79 l42 -24 45 27 c44 25
45 27 45 78 0 51 -1 53 -45 80 -25 15 -47 27 -48 27 -1 -1 -21 -12 -45 -27z"/>
<path d="M4153 1853 c-42 -24 -43 -26 -43 -78 0 -54 1 -54 45 -80 l45 -27 42
24 c42 23 43 25 46 79 l3 57 -45 26 c-24 14 -46 26 -48 25 -2 -1 -22 -12 -45
-26z"/>
<path d="M4357 1853 c-47 -26 -47 -27 -47 -79 0 -51 1 -52 46 -79 l46 -27 42
23 c52 28 56 35 56 86 0 34 -5 45 -27 61 -60 41 -66 42 -116 15z"/>
<path d="M4533 1835 c-32 -23 -33 -109 -2 -125 11 -7 23 -10 25 -7 3 3 4 37 2
76 l-3 71 -22 -15z"/>
<path d="M0 1770 c0 -68 1 -70 20 -60 16 9 20 21 20 64 0 50 -9 66 -36 66 -2
0 -4 -32 -4 -70z"/>
<path d="M17 1689 c-14 -8 -17 -24 -17 -89 0 -70 3 -81 22 -94 20 -14 25 -13
70 12 48 27 48 27 48 79 0 51 -1 53 -43 78 -49 28 -54 29 -80 14z"/>
<path d="M198 1676 c-37 -20 -38 -23 -38 -78 0 -56 0 -56 44 -81 l44 -24 46
25 47 26 -3 55 c-3 53 -5 56 -43 78 -48 27 -49 27 -97 -1z"/>
<path d="M405 1677 c-38 -22 -40 -25 -43 -78 l-3 -55 47 -26 46 -25 44 24 c44
25 44 25 44 81 0 57 0 57 -42 80 -24 12 -45 22 -48 22 -3 0 -23 -11 -45 -23z"/>
<path d="M603 1674 c-42 -24 -43 -27 -43 -77 0 -52 0 -52 48 -79 l48 -27 47
30 c46 28 47 30 47 78 0 47 -1 50 -44 75 -25 14 -48 26 -53 26 -4 0 -27 -12
-50 -26z"/>
<path d="M808 1677 c-37 -21 -38 -24 -38 -78 0 -56 0 -57 43 -82 l42 -25 47
26 c48 27 48 27 48 79 0 51 -1 53 -43 78 -52 30 -52 30 -99 2z"/>
<path d="M1008 1674 c-36 -23 -38 -27 -38 -77 0 -51 1 -53 44 -78 l43 -27 47
26 47 26 -3 55 c-3 53 -5 56 -43 78 -49 28 -51 28 -97 -3z"/>
<path d="M1213 1674 c-42 -24 -43 -27 -43 -77 0 -51 1 -52 46 -78 l46 -26 44
24 c44 25 44 25 44 81 0 57 0 57 -42 80 -24 12 -45 22 -48 22 -3 0 -24 -12
-47 -26z"/>
<path d="M1413 1674 c-41 -25 -43 -28 -43 -75 0 -46 2 -50 42 -76 24 -14 47
-26 53 -26 6 0 29 12 53 26 40 26 42 30 42 76 0 47 -1 50 -44 75 -25 14 -48
26 -53 26 -4 -1 -27 -12 -50 -26z"/>
<path d="M1618 1677 c-37 -21 -38 -24 -38 -79 0 -56 0 -56 44 -81 l44 -24 46
26 c45 26 46 27 46 78 0 51 -1 53 -43 78 -52 30 -52 30 -99 2z"/>
<path d="M1818 1674 c-36 -23 -38 -27 -38 -78 0 -53 0 -53 45 -77 l45 -24 45
24 c45 24 45 24 45 77 0 52 -1 55 -40 79 -48 30 -55 30 -102 -1z"/>
<path d="M2023 1674 c-42 -24 -43 -27 -43 -77 0 -51 1 -52 46 -78 l46 -26 44
24 c44 25 44 25 44 81 0 56 -1 57 -40 80 -48 27 -46 27 -97 -4z"/>
<path d="M2223 1674 c-41 -25 -43 -28 -43 -75 0 -46 2 -50 42 -76 24 -14 47
-26 53 -26 6 0 29 12 53 26 40 26 42 29 42 77 0 47 -1 50 -43 75 -24 14 -48
25 -53 25 -5 -1 -28 -12 -51 -26z"/>
<path d="M2428 1676 c-37 -20 -38 -23 -38 -78 0 -56 0 -56 44 -81 l44 -24 46
26 47 26 -3 55 c-3 52 -5 55 -43 77 -48 27 -49 27 -97 -1z"/>
<path d="M2635 1677 c-38 -22 -40 -25 -43 -78 l-3 -55 47 -26 47 -26 43 27
c43 25 44 27 44 81 0 55 0 55 -42 78 -24 12 -45 22 -48 22 -3 0 -23 -11 -45
-23z"/>
<path d="M2833 1674 c-42 -24 -43 -27 -43 -77 0 -52 0 -52 48 -79 l48 -27 47
30 c46 28 47 30 47 78 0 47 -1 50 -44 75 -25 14 -48 26 -53 26 -4 0 -27 -12
-50 -26z"/>
<path d="M3033 1674 c-41 -25 -43 -28 -43 -75 0 -48 1 -50 47 -78 l47 -30 48
27 c48 27 48 27 48 79 0 51 -1 53 -43 78 -24 14 -48 25 -53 25 -5 -1 -28 -12
-51 -26z"/>
<path d="M3238 1676 c-37 -20 -38 -23 -38 -78 0 -56 0 -56 44 -81 l44 -24 46
25 47 26 -3 55 c-3 53 -5 56 -43 78 -48 27 -49 27 -97 -1z"/>
<path d="M3445 1677 c-38 -22 -40 -25 -43 -78 l-3 -55 47 -26 46 -25 44 24
c44 25 44 25 44 81 0 57 0 57 -42 80 -24 12 -45 22 -48 22 -3 0 -23 -11 -45
-23z"/>
<path d="M3643 1674 c-42 -24 -43 -27 -43 -77 0 -52 0 -52 48 -79 l48 -27 47
30 c46 28 47 30 47 78 0 47 -1 50 -44 75 -25 14 -48 26 -53 26 -4 0 -27 -12
-50 -26z"/>
<path d="M3848 1677 c-37 -21 -38 -24 -38 -78 0 -56 0 -57 43 -82 l42 -25 47
26 c48 27 48 27 48 79 0 51 -1 53 -43 78 -52 30 -52 30 -99 2z"/>
<path d="M4048 1674 c-36 -23 -38 -27 -38 -77 0 -51 1 -53 44 -78 l43 -27 47
26 47 26 -3 55 c-3 53 -5 56 -43 78 -49 28 -51 28 -97 -3z"/>
<path d="M4253 1674 c-42 -24 -43 -27 -43 -77 0 -51 1 -52 46 -78 l46 -26 44
24 c44 25 44 25 44 81 0 57 0 57 -42 80 -24 12 -45 22 -48 22 -3 0 -24 -12
-47 -26z"/>
<path d="M4453 1674 c-41 -25 -43 -28 -43 -75 0 -48 1 -50 47 -78 46 -29 48
-29 75 -13 27 15 28 20 28 89 0 63 -3 74 -22 87 -29 21 -35 20 -85 -10z"/>
<path d="M103 1503 c-43 -25 -43 -26 -43 -82 l0 -56 45 -24 44 -23 46 26 c44
26 45 28 45 80 0 53 0 53 -47 79 l-48 25 -42 -25z"/>
<path d="M302 1502 c-43 -27 -43 -27 -40 -82 3 -53 4 -55 46 -78 l42 -23 43
23 c41 23 42 25 45 80 l3 56 -47 26 c-25 14 -47 26 -48 25 0 0 -20 -13 -44
-27z"/>
<path d="M507 1502 c-47 -27 -47 -27 -47 -79 0 -51 1 -53 45 -79 l46 -26 45
23 45 24 -3 58 c-3 55 -4 58 -43 81 l-40 24 -48 -26z"/>
<path d="M707 1499 c-48 -30 -48 -30 -45 -80 3 -48 5 -52 49 -76 l45 -26 47
27 c46 28 47 29 47 79 0 52 0 52 -48 79 l-48 27 -47 -30z"/>
<path d="M913 1503 c-43 -24 -43 -25 -43 -81 l0 -57 45 -24 44 -23 46 26 c44
26 45 28 45 80 l0 53 -47 25 -48 25 -42 -24z"/>
<path d="M1116 1502 l-47 -26 3 -55 c3 -54 4 -56 46 -79 l42 -23 43 23 c41 23
42 25 45 80 l3 56 -44 25 -45 24 -46 -25z"/>
<path d="M1317 1502 c-47 -27 -47 -27 -47 -79 0 -51 1 -53 46 -79 l45 -27 47
26 c45 25 47 28 50 76 3 53 4 53 -83 103 -6 4 -32 -6 -58 -20z"/>
<path d="M1517 1499 c-48 -30 -48 -30 -45 -80 3 -48 5 -52 49 -76 l45 -26 47
27 c46 28 47 29 47 79 0 52 0 52 -48 79 l-48 27 -47 -30z"/>
<path d="M1723 1503 c-42 -24 -43 -25 -43 -79 0 -52 1 -54 42 -80 l43 -27 45
25 c44 25 45 26 48 80 l3 54 -48 26 -48 25 -42 -24z"/>
<path d="M1926 1502 l-47 -26 3 -54 c3 -54 4 -55 48 -80 l45 -25 43 27 c41 26
42 28 42 80 0 54 0 55 -44 79 l-44 24 -46 -25z"/>
<path d="M2127 1502 c-46 -27 -47 -28 -47 -79 0 -50 1 -51 47 -79 l47 -27 45
26 c44 24 46 28 49 76 3 53 4 53 -83 103 -6 4 -32 -6 -58 -20z"/>
<path d="M2333 1503 c-43 -25 -43 -26 -43 -82 l0 -56 45 -24 44 -23 46 26 c44
26 45 28 45 79 0 52 0 52 -48 79 l-47 26 -42 -25z"/>
<path d="M2532 1503 l-43 -25 3 -56 c3 -55 4 -57 46 -80 l42 -23 43 23 c41 23
42 25 45 78 l3 55 -46 28 c-25 15 -47 27 -48 26 -1 -1 -21 -12 -45 -26z"/>
<path d="M2737 1503 c-47 -26 -47 -27 -47 -79 0 -52 1 -54 45 -80 l46 -26 45
23 45 24 -3 58 c-3 56 -4 58 -43 82 l-41 24 -47 -26z"/>
<path d="M2937 1502 c-46 -27 -47 -28 -47 -79 0 -50 1 -51 47 -79 l47 -27 45
26 c44 24 46 28 49 75 3 45 0 52 -25 70 -60 42 -65 42 -116 14z"/>
<path d="M3143 1503 c-43 -25 -43 -26 -43 -82 l0 -56 45 -24 44 -23 46 26 c44
26 45 28 45 80 0 53 0 53 -47 79 l-48 25 -42 -25z"/>
<path d="M3342 1502 c-43 -27 -43 -27 -40 -82 3 -53 4 -55 46 -78 l42 -23 43
23 c41 23 42 25 45 80 l3 56 -47 26 c-25 14 -47 26 -48 25 0 0 -20 -13 -44
-27z"/>
<path d="M3547 1502 c-47 -27 -47 -27 -47 -79 0 -51 1 -53 45 -79 l46 -26 45
23 45 24 -3 58 c-3 55 -4 58 -43 81 l-40 24 -48 -26z"/>
<path d="M3747 1499 c-48 -30 -48 -30 -45 -80 3 -48 5 -52 49 -76 l45 -26 47
27 c46 28 47 29 47 79 0 52 0 52 -48 79 l-48 27 -47 -30z"/>
<path d="M3953 1503 c-43 -24 -43 -25 -43 -81 l0 -57 45 -24 44 -23 46 26 c44
26 45 28 45 80 l0 53 -47 25 -48 25 -42 -24z"/>
<path d="M4156 1502 l-47 -26 3 -55 c3 -54 4 -56 46 -79 l42 -23 43 23 c41 23
42 25 45 80 l3 56 -44 25 -45 24 -46 -25z"/>
<path d="M4357 1502 c-47 -27 -47 -27 -47 -79 0 -51 1 -53 46 -79 l45 -27 47
26 c45 25 47 28 50 76 3 53 4 53 -83 103 -6 4 -32 -6 -58 -20z"/>
<path d="M4533 1485 c-32 -23 -33 -109 -2 -125 11 -7 23 -10 25 -7 3 3 4 37 2
76 l-3 71 -22 -15z"/>
<path d="M0 1420 c0 -68 1 -70 20 -60 35 18 24 130 -12 130 -4 0 -8 -32 -8
-70z"/>
<path d="M17 1336 c-13 -11 -17 -29 -17 -89 0 -67 3 -78 22 -91 20 -14 25 -13
70 12 48 27 48 27 48 79 0 50 -1 52 -44 77 -51 30 -55 30 -79 12z"/>
<path d="M205 1327 c-38 -22 -40 -25 -43 -79 l-3 -56 44 -25 45 -24 46 25 c46
25 46 26 46 78 0 52 -1 54 -43 79 -24 14 -46 25 -48 25 -2 0 -22 -11 -44 -23z"/>
<path d="M403 1324 c-42 -24 -43 -26 -43 -78 0 -52 0 -53 46 -78 l46 -25 44
24 c44 24 44 25 44 79 0 52 -1 55 -40 79 -22 14 -43 25 -47 25 -5 0 -27 -12
-50 -26z"/>
<path d="M603 1324 c-42 -25 -43 -28 -43 -78 0 -51 0 -51 48 -78 l48 -27 47
30 c46 28 47 30 47 78 0 47 -1 50 -44 75 -25 14 -48 26 -53 26 -4 -1 -27 -12
-50 -26z"/>
<path d="M808 1326 c-37 -20 -38 -23 -38 -77 0 -56 0 -57 43 -82 l42 -25 47
26 c48 27 48 27 48 79 0 51 -1 53 -43 78 -51 29 -51 29 -99 1z"/>
<path d="M1015 1327 c-38 -22 -40 -25 -43 -79 l-3 -56 46 -25 46 -26 45 27 45
27 -3 55 c-3 52 -5 55 -43 77 -22 12 -42 23 -45 23 -3 0 -23 -11 -45 -23z"/>
<path d="M1213 1324 c-42 -24 -43 -26 -43 -78 0 -53 0 -53 48 -79 l47 -25 43
25 c42 25 42 26 42 82 0 56 0 56 -42 79 -24 12 -45 22 -48 22 -3 0 -24 -12
-47 -26z"/>
<path d="M1413 1324 c-42 -25 -43 -28 -43 -78 0 -51 0 -51 48 -78 l49 -27 46
29 c46 29 47 31 47 79 0 48 -1 50 -44 75 -25 14 -48 26 -53 26 -4 -1 -27 -12
-50 -26z"/>
<path d="M1618 1326 c-37 -20 -38 -23 -38 -77 0 -56 0 -57 43 -82 l42 -25 48
25 c47 26 47 26 47 79 0 52 -1 54 -43 79 -51 29 -51 29 -99 1z"/>
<path d="M1825 1327 c-38 -22 -40 -25 -43 -79 l-3 -56 46 -25 45 -26 45 26 46
25 -3 56 c-3 54 -5 57 -43 79 -22 12 -42 23 -45 23 -3 0 -23 -11 -45 -23z"/>
<path d="M2023 1324 c-42 -24 -43 -26 -43 -78 0 -53 0 -53 48 -79 l47 -25 43
25 c42 25 42 26 42 82 0 56 0 56 -42 79 -24 12 -45 22 -48 22 -3 0 -24 -12
-47 -26z"/>
<path d="M2223 1324 c-41 -25 -43 -28 -43 -75 0 -48 1 -50 47 -79 l46 -29 49
27 c48 27 48 27 48 79 0 50 -1 52 -44 77 -25 14 -48 26 -53 26 -4 -1 -27 -12
-50 -26z"/>
<path d="M2428 1324 c-36 -23 -38 -27 -38 -78 0 -53 1 -54 43 -79 l42 -25 48
25 c47 26 47 26 47 79 0 52 -1 54 -43 79 -53 30 -52 30 -99 -1z"/>
<path d="M2633 1324 c-42 -24 -43 -27 -43 -77 0 -51 1 -53 45 -79 l44 -27 46
26 46 25 -3 56 c-3 54 -5 57 -43 79 -22 12 -42 23 -45 23 -3 0 -24 -12 -47
-26z"/>
<path d="M2833 1324 c-42 -25 -43 -28 -43 -78 0 -51 0 -51 48 -78 l48 -27 47
30 c46 28 47 30 47 78 0 48 -1 50 -46 75 -26 14 -49 26 -53 26 -3 -1 -25 -12
-48 -26z"/>
<path d="M3033 1323 c-41 -24 -43 -26 -43 -74 0 -48 1 -50 47 -78 l47 -30 48
27 c48 27 48 27 48 79 0 50 -1 52 -44 77 -25 14 -48 26 -53 25 -4 -1 -27 -12
-50 -26z"/>
<path d="M3245 1327 c-38 -22 -40 -25 -43 -79 l-3 -56 44 -25 45 -24 46 25
c46 25 46 26 46 78 0 52 -1 54 -43 79 -24 14 -46 25 -48 25 -2 0 -22 -11 -44
-23z"/>
<path d="M3443 1324 c-42 -24 -43 -26 -43 -78 0 -52 0 -53 46 -78 l46 -25 44
24 c44 24 44 25 44 79 0 52 -1 55 -40 79 -22 14 -43 25 -47 25 -5 0 -27 -12
-50 -26z"/>
<path d="M3643 1324 c-42 -25 -43 -28 -43 -78 0 -51 0 -51 48 -78 l48 -27 47
30 c46 28 47 30 47 78 0 47 -1 50 -44 75 -25 14 -48 26 -53 26 -4 -1 -27 -12
-50 -26z"/>
<path d="M3848 1326 c-37 -20 -38 -23 -38 -77 0 -56 0 -57 43 -82 l42 -25 47
26 c48 27 48 27 48 79 0 51 -1 53 -43 78 -51 29 -51 29 -99 1z"/>
<path d="M4055 1327 c-38 -22 -40 -25 -43 -79 l-3 -56 46 -25 46 -26 45 27 45
27 -3 55 c-3 52 -5 55 -43 77 -22 12 -42 23 -45 23 -3 0 -23 -11 -45 -23z"/>
<path d="M4253 1324 c-42 -24 -43 -26 -43 -78 0 -53 0 -53 48 -79 l47 -25 43
25 c42 25 42 26 42 82 0 56 0 56 -42 79 -24 12 -45 22 -48 22 -3 0 -24 -12
-47 -26z"/>
<path d="M4453 1324 c-42 -25 -43 -28 -43 -78 0 -51 0 -51 48 -78 43 -24 49
-25 75 -12 26 14 27 18 27 89 0 65 -3 76 -22 89 -29 21 -35 20 -85 -10z"/>
<path d="M103 1153 c-43 -24 -43 -25 -43 -81 0 -57 0 -57 44 -81 l43 -24 44
24 c43 24 44 26 47 79 l3 55 -48 26 -48 26 -42 -24z"/>
<path d="M506 1151 c-45 -26 -46 -27 -46 -78 0 -51 1 -53 46 -79 l46 -27 44
24 c44 24 44 24 44 80 0 57 0 57 -44 82 l-44 24 -46 -26z"/>
<path d="M707 1149 c-48 -30 -48 -30 -45 -80 3 -48 5 -51 49 -77 l46 -26 47
28 c45 26 46 28 46 76 0 52 -1 53 -85 102 -6 4 -32 -7 -58 -23z"/>
<path d="M913 1153 c-43 -24 -43 -25 -43 -81 l0 -57 44 -24 45 -23 43 24 c42
23 43 25 46 78 l3 55 -48 26 -48 26 -42 -24z"/>
<path d="M1317 1152 c-47 -27 -47 -27 -47 -79 0 -51 1 -53 46 -79 l47 -28 46
26 c44 25 46 29 49 77 3 53 4 53 -83 103 -6 4 -32 -6 -58 -20z"/>
<path d="M1517 1149 c-48 -30 -48 -30 -45 -80 3 -48 5 -51 49 -77 l46 -26 47
28 c45 26 46 28 46 79 0 52 0 52 -48 79 l-48 27 -47 -30z"/>
<path d="M1723 1151 c-42 -25 -43 -27 -43 -81 0 -55 0 -55 44 -79 l45 -23 43
24 c42 23 43 25 46 79 l3 55 -48 26 -48 25 -42 -26z"/>
<path d="M1926 1151 l-47 -26 3 -55 c3 -53 4 -55 46 -78 l43 -24 45 23 44 24
0 57 c0 56 0 56 -44 81 l-44 24 -46 -26z"/>
<path d="M2127 1149 c-46 -28 -47 -30 -47 -79 0 -48 1 -50 46 -76 l47 -28 46
26 c44 25 46 29 49 77 3 53 4 53 -83 103 -6 4 -32 -7 -58 -23z"/>
<path d="M2333 1153 c-43 -24 -43 -25 -43 -81 l0 -57 44 -24 44 -24 46 27 c45
26 46 28 46 79 0 52 0 52 -48 78 l-47 26 -42 -24z"/>
<path d="M2736 1151 l-47 -26 3 -55 c3 -53 4 -55 47 -79 l44 -24 43 24 c44 24
44 24 44 80 0 57 0 57 -44 82 l-44 24 -46 -26z"/>
<path d="M2937 1149 c-46 -28 -47 -30 -47 -79 0 -48 1 -50 47 -77 l46 -27 46
26 c44 24 46 27 49 76 3 54 4 53 -83 104 -6 4 -32 -7 -58 -23z"/>
<path d="M3143 1153 c-43 -24 -43 -25 -43 -81 0 -57 0 -57 44 -81 l43 -24 44
24 c43 24 44 26 47 79 l3 55 -48 26 -48 26 -42 -24z"/>
<path d="M3546 1151 c-45 -26 -46 -27 -46 -78 0 -51 1 -53 46 -79 l46 -27 44
24 c44 24 44 24 44 80 0 57 0 57 -44 82 l-44 24 -46 -26z"/>
<path d="M3747 1149 c-48 -30 -48 -30 -45 -80 3 -48 5 -51 49 -77 l46 -26 47
28 c45 26 46 28 46 76 0 52 -1 53 -85 102 -6 4 -32 -7 -58 -23z"/>
<path d="M3953 1153 c-43 -24 -43 -25 -43 -81 l0 -57 44 -24 45 -23 43 24 c42
23 43 25 46 78 l3 55 -48 26 -48 26 -42 -24z"/>
<path d="M4357 1152 c-47 -27 -47 -27 -47 -79 0 -51 1 -53 46 -79 l47 -28 46
26 c44 25 46 29 49 77 3 53 4 53 -83 103 -6 4 -32 -6 -58 -20z"/>
<path d="M298 1148 c-36 -21 -38 -24 -38 -75 0 -51 2 -54 40 -78 49 -31 51
-31 100 0 38 24 40 27 40 78 0 51 -1 54 -39 75 -48 27 -57 27 -103 0z"/>
<path d="M1107 1148 c-37 -22 -38 -23 -35 -78 3 -53 4 -55 46 -78 l43 -24 45
23 c44 24 44 24 44 80 0 54 -1 56 -39 77 -48 27 -56 27 -104 0z"/>
<path d="M2528 1148 c-37 -21 -38 -24 -38 -77 0 -56 0 -56 43 -79 52 -27 49
-27 97 3 38 24 40 27 40 78 0 51 -1 54 -39 75 -48 27 -57 27 -103 0z"/>
<path d="M3338 1148 c-36 -21 -38 -24 -38 -75 0 -51 2 -54 40 -78 49 -31 51
-31 100 0 38 24 40 27 40 78 0 51 -1 54 -39 75 -48 27 -57 27 -103 0z"/>
<path d="M4147 1148 c-37 -22 -38 -23 -35 -78 3 -53 4 -55 46 -78 l43 -24 45
23 c44 24 44 24 44 80 0 54 -1 56 -39 77 -48 27 -56 27 -104 0z"/>
<path d="M4533 1135 c-32 -23 -33 -109 -2 -125 11 -7 23 -10 25 -7 3 3 4 37 2
76 l-3 71 -22 -15z"/>
<path d="M0 1070 c0 -68 1 -70 20 -60 35 18 24 130 -12 130 -4 0 -8 -32 -8
-70z"/>
<path d="M17 986 c-14 -11 -17 -29 -17 -93 0 -73 2 -81 23 -90 18 -9 31 -6 70
15 47 25 47 25 47 78 0 51 -1 53 -44 78 -51 30 -55 30 -79 12z"/>
<path d="M205 977 c-38 -22 -40 -25 -43 -79 l-3 -56 45 -26 44 -26 46 26 c46
26 46 26 46 79 0 53 -1 55 -43 80 -24 14 -46 25 -48 25 -2 0 -22 -11 -44 -23z"/>
<path d="M403 974 c-42 -25 -43 -26 -43 -79 0 -53 0 -53 46 -79 l46 -26 44 26
45 26 -3 56 c-3 54 -5 57 -43 79 -22 12 -42 23 -45 23 -3 0 -24 -12 -47 -26z"/>
<path d="M603 974 c-42 -25 -43 -27 -43 -78 0 -53 0 -53 48 -79 l49 -27 46 30
c46 29 47 31 47 79 0 48 -1 50 -46 75 -26 14 -49 26 -53 26 -3 -1 -25 -12 -48
-26z"/>
<path d="M808 974 c-36 -23 -38 -27 -38 -79 0 -53 1 -54 42 -79 l42 -25 48 26
c48 26 48 26 48 79 0 51 -1 53 -44 78 -25 14 -48 26 -53 25 -4 0 -25 -11 -45
-25z"/>
<path d="M1013 974 c-42 -25 -43 -26 -43 -79 0 -52 1 -54 44 -79 l44 -26 46
26 c46 26 46 26 46 79 0 53 -1 55 -43 80 -24 14 -46 25 -48 25 -2 0 -23 -12
-46 -26z"/>
<path d="M1213 974 c-42 -25 -43 -28 -43 -78 0 -50 1 -52 46 -79 l45 -27 45
26 45 26 -3 56 c-3 54 -5 57 -43 79 -22 12 -42 23 -45 22 -3 0 -24 -11 -47
-25z"/>
<path d="M1413 973 c-42 -24 -43 -26 -43 -76 0 -52 1 -52 47 -79 l48 -27 47
27 c48 27 48 27 48 79 0 51 -1 52 -46 77 -26 14 -49 26 -53 25 -3 -1 -25 -12
-48 -26z"/>
<path d="M1625 977 c-38 -22 -40 -25 -43 -79 l-3 -56 45 -26 45 -26 45 27 c45
27 46 29 46 79 0 51 -1 53 -44 78 -25 14 -46 26 -48 26 -2 0 -21 -11 -43 -23z"/>
<path d="M1823 974 c-42 -25 -43 -26 -43 -79 0 -53 0 -53 46 -79 l46 -26 44
26 c43 26 44 27 44 80 0 52 -1 54 -43 79 -24 14 -46 25 -48 25 -2 0 -23 -12
-46 -26z"/>
<path d="M2023 974 c-42 -25 -43 -27 -43 -78 0 -53 0 -53 48 -79 l48 -26 42
25 43 26 -3 56 c-3 54 -5 57 -43 79 -22 12 -42 23 -45 22 -3 0 -24 -11 -47
-25z"/>
<path d="M2223 973 c-42 -24 -43 -26 -43 -76 0 -52 0 -52 48 -79 l47 -27 48
26 c47 26 47 27 47 79 0 52 0 53 -46 78 -26 14 -49 26 -53 25 -3 -1 -25 -12
-48 -26z"/>
<path d="M2435 977 c-38 -22 -40 -25 -43 -79 l-3 -56 45 -26 44 -26 46 26 c46
26 46 26 46 79 0 52 -1 54 -44 79 -25 14 -46 26 -48 26 -2 0 -21 -11 -43 -23z"/>
<path d="M2633 974 c-42 -25 -43 -26 -43 -79 0 -53 0 -53 46 -79 l46 -26 44
26 c43 26 44 27 44 80 0 52 -1 54 -43 79 -24 14 -46 25 -48 25 -2 0 -23 -12
-46 -26z"/>
<path d="M2833 974 c-42 -25 -43 -27 -43 -78 0 -53 0 -53 48 -79 l49 -27 47
30 c46 30 47 31 44 77 -3 42 -7 50 -43 75 -22 15 -44 27 -50 27 -5 0 -29 -11
-52 -25z"/>
<path d="M3033 973 c-41 -24 -43 -26 -43 -74 0 -48 1 -50 47 -79 l46 -30 49
27 c48 26 48 26 48 79 0 51 -1 53 -44 78 -25 14 -48 26 -53 25 -4 -1 -27 -12
-50 -26z"/>
<path d="M3245 977 c-38 -22 -40 -25 -43 -79 l-3 -56 45 -26 44 -26 46 26 c46
26 46 26 46 79 0 53 -1 55 -43 80 -24 14 -46 25 -48 25 -2 0 -22 -11 -44 -23z"/>
<path d="M3443 974 c-42 -25 -43 -26 -43 -79 0 -53 0 -53 46 -79 l46 -26 44
26 45 26 -3 56 c-3 54 -5 57 -43 79 -22 12 -42 23 -45 23 -3 0 -24 -12 -47
-26z"/>
<path d="M3643 974 c-42 -25 -43 -27 -43 -78 0 -53 0 -53 48 -79 l49 -27 46
30 c46 29 47 31 47 79 0 48 -1 50 -46 75 -26 14 -49 26 -53 26 -3 -1 -25 -12
-48 -26z"/>
<path d="M3848 974 c-36 -23 -38 -27 -38 -79 0 -53 1 -54 42 -79 l42 -25 48
26 c48 26 48 26 48 79 0 51 -1 53 -44 78 -25 14 -48 26 -53 25 -4 0 -25 -11
-45 -25z"/>
<path d="M4053 974 c-42 -25 -43 -26 -43 -79 0 -52 1 -54 44 -79 l44 -26 46
26 c46 26 46 26 46 79 0 53 -1 55 -43 80 -24 14 -46 25 -48 25 -2 0 -23 -12
-46 -26z"/>
<path d="M4253 974 c-42 -25 -43 -28 -43 -78 0 -50 1 -52 46 -79 l45 -27 45
26 45 26 -3 56 c-3 54 -5 57 -43 79 -22 12 -42 23 -45 22 -3 0 -24 -11 -47
-25z"/>
<path d="M4453 973 c-42 -24 -43 -26 -43 -76 0 -52 0 -52 48 -79 43 -24 49
-25 75 -12 26 14 27 18 27 88 0 67 -2 75 -25 90 -30 20 -30 20 -82 -11z"/>
<path d="M710 800 c-44 -26 -45 -27 -45 -80 0 -52 0 -53 46 -78 l46 -26 46 27
c46 27 47 29 47 77 0 51 -8 60 -85 102 -5 3 -30 -7 -55 -22z"/>
<path d="M1520 800 c-43 -25 -45 -28 -48 -77 l-3 -52 47 -27 47 -28 46 25 c45
23 46 25 49 76 3 51 2 53 -35 76 -21 13 -42 26 -48 29 -5 3 -30 -7 -55 -22z"/>
<path d="M2126 799 c-45 -28 -46 -30 -46 -79 0 -48 1 -50 47 -77 l46 -27 46
26 c46 25 46 26 46 78 0 53 0 54 -46 81 l-46 27 -47 -29z"/>
<path d="M2936 799 c-45 -28 -46 -30 -46 -79 0 -48 1 -50 47 -77 l46 -27 46
26 c46 25 46 26 46 78 0 53 0 54 -46 81 l-46 27 -47 -29z"/>
<path d="M3750 800 c-44 -26 -45 -27 -45 -80 0 -52 0 -53 46 -78 l46 -26 46
27 c46 27 47 29 47 77 0 51 -8 60 -85 102 -5 3 -30 -7 -55 -22z"/>
<path d="M98 798 c-37 -21 -38 -24 -38 -78 0 -55 0 -56 44 -79 l43 -24 44 24
c43 24 44 26 47 79 l3 55 -43 23 c-52 27 -54 27 -100 0z"/>
<path d="M298 797 c-36 -21 -38 -24 -38 -77 l0 -55 45 -24 45 -24 45 24 45 24
0 55 c0 54 -1 56 -40 78 -48 27 -55 27 -102 -1z"/>
<path d="M497 796 c-37 -21 -38 -22 -35 -76 3 -53 4 -55 47 -79 l44 -24 43 24
c44 23 44 24 44 79 0 55 -1 57 -39 78 -46 26 -55 26 -104 -2z"/>
<path d="M908 798 c-37 -21 -38 -24 -38 -77 0 -55 1 -57 40 -78 49 -29 52 -29
100 2 38 24 40 27 40 78 0 50 -2 53 -40 75 -48 27 -55 27 -102 0z"/>
<path d="M1108 797 c-36 -21 -38 -24 -38 -77 l0 -55 46 -24 46 -25 44 24 c44
25 44 25 44 80 0 55 -1 57 -39 78 -48 27 -56 27 -103 -1z"/>
<path d="M1307 794 c-37 -24 -38 -27 -35 -77 3 -51 4 -53 49 -76 l46 -25 47
28 47 27 -3 52 c-3 48 -5 53 -43 74 -50 28 -61 28 -108 -3z"/>
<path d="M1718 798 c-37 -21 -38 -24 -38 -78 0 -55 0 -55 44 -80 l44 -24 46
25 46 24 0 55 c0 54 -1 56 -40 78 -48 27 -55 27 -102 0z"/>
<path d="M1918 797 c-36 -21 -38 -25 -38 -74 0 -51 2 -54 40 -78 48 -31 51
-31 100 -2 39 21 40 23 40 78 0 54 -1 56 -39 77 -48 27 -56 27 -103 -1z"/>
<path d="M2328 799 c-37 -19 -38 -21 -38 -77 l0 -57 44 -24 43 -24 44 24 c43
24 44 26 47 79 l3 55 -43 23 c-51 26 -53 26 -100 1z"/>
<path d="M2528 798 c-37 -21 -38 -24 -38 -77 l0 -56 45 -24 45 -24 45 24 45
24 0 55 c0 54 -1 56 -40 78 -48 27 -55 27 -102 0z"/>
<path d="M2727 797 c-37 -22 -37 -23 -35 -77 3 -53 4 -55 47 -79 l44 -24 43
24 c44 23 44 24 44 79 0 55 -1 57 -39 78 -48 27 -56 27 -104 -1z"/>
<path d="M3138 798 c-37 -21 -38 -24 -38 -78 0 -55 0 -56 44 -79 l43 -24 44
24 c43 24 44 26 47 79 l3 55 -43 23 c-52 27 -54 27 -100 0z"/>
<path d="M3338 797 c-36 -21 -38 -24 -38 -77 l0 -55 45 -24 45 -24 45 24 45
24 0 55 c0 54 -1 56 -40 78 -48 27 -55 27 -102 -1z"/>
<path d="M3537 796 c-37 -21 -38 -22 -35 -76 3 -53 4 -55 47 -79 l44 -24 43
24 c44 23 44 24 44 79 0 55 -1 57 -39 78 -46 26 -55 26 -104 -2z"/>
<path d="M3948 798 c-37 -21 -38 -24 -38 -77 0 -55 1 -57 40 -78 49 -29 52
-29 100 2 38 24 40 27 40 78 0 50 -2 53 -40 75 -48 27 -55 27 -102 0z"/>
<path d="M4148 797 c-36 -21 -38 -24 -38 -77 l0 -55 46 -24 46 -25 44 24 c44
25 44 25 44 80 0 55 -1 57 -39 78 -48 27 -56 27 -103 -1z"/>
<path d="M4347 794 c-37 -24 -38 -27 -35 -77 3 -51 4 -53 49 -76 l46 -25 47
28 47 27 -3 52 c-3 48 -5 53 -43 74 -50 28 -61 28 -108 -3z"/>
<path d="M4532 784 c-18 -12 -22 -25 -22 -63 0 -41 4 -51 25 -65 l25 -16 0 80
c0 44 -1 80 -3 80 -1 0 -13 -7 -25 -16z"/>
<path d="M0 720 c0 -68 1 -70 20 -60 35 18 24 130 -12 130 -4 0 -8 -32 -8 -70z"/>
<path d="M23 638 c-21 -10 -23 -18 -23 -93 0 -78 1 -82 25 -93 21 -10 32 -8
70 16 44 26 45 28 45 79 0 51 -1 52 -46 77 -26 14 -47 26 -48 25 0 0 -11 -5
-23 -11z"/>
<path d="M203 624 c-42 -25 -43 -26 -43 -79 0 -54 1 -54 45 -80 l44 -26 46 26
c44 27 45 28 45 80 0 52 -1 54 -44 79 -25 14 -46 26 -48 26 -2 0 -22 -12 -45
-26z"/>
<path d="M403 624 c-42 -25 -43 -27 -43 -79 0 -52 1 -53 45 -80 l46 -26 44 26
c44 26 45 26 45 80 0 53 -1 55 -43 80 -24 14 -46 25 -48 25 -2 -1 -23 -12 -46
-26z"/>
<path d="M603 623 c-42 -24 -43 -26 -43 -76 0 -51 1 -53 46 -80 l46 -27 49 26
c49 27 49 27 49 79 0 52 0 52 -49 78 -27 15 -50 27 -52 26 -2 -1 -23 -12 -46
-26z"/>
<path d="M815 627 c-38 -22 -40 -25 -43 -79 l-3 -57 44 -25 44 -26 47 26 c46
26 46 26 46 79 0 53 0 53 -46 79 -26 14 -47 26 -48 26 0 0 -19 -11 -41 -23z"/>
<path d="M1013 624 c-42 -25 -43 -26 -43 -79 0 -52 1 -53 45 -79 l45 -27 45
27 c44 26 45 27 45 79 0 52 -1 54 -44 79 -25 14 -46 26 -48 26 -2 0 -22 -12
-45 -26z"/>
<path d="M1213 624 c-42 -25 -43 -27 -43 -79 0 -53 0 -53 46 -79 l47 -26 43
25 c43 25 44 27 44 80 0 53 -1 55 -43 80 -24 14 -46 25 -48 25 -2 -1 -23 -12
-46 -26z"/>
<path d="M1413 623 c-42 -24 -43 -26 -43 -77 0 -52 0 -53 47 -79 l48 -26 47
26 c48 26 48 27 48 77 0 50 -1 52 -45 79 -25 15 -49 27 -53 26 -4 -1 -26 -12
-49 -26z"/>
<path d="M1625 627 c-38 -22 -40 -25 -43 -79 l-3 -57 44 -25 44 -26 47 26 c46
26 46 26 46 79 0 52 -1 54 -44 79 -25 14 -46 26 -48 26 -2 0 -21 -11 -43 -23z"/>
<path d="M1823 624 c-42 -25 -43 -26 -43 -79 0 -52 1 -53 45 -79 l45 -27 45
27 c44 26 45 27 45 80 0 52 -1 54 -43 79 -24 14 -46 25 -48 25 -2 0 -23 -12
-46 -26z"/>
<path d="M2023 624 c-42 -25 -43 -27 -43 -79 0 -53 0 -53 46 -79 l47 -26 44
26 44 25 -3 57 c-3 54 -5 57 -43 79 -22 12 -42 23 -45 22 -3 0 -24 -11 -47
-25z"/>
<path d="M2223 622 c-41 -26 -43 -29 -43 -78 0 -50 0 -51 47 -77 l48 -26 47
26 c48 26 48 26 48 79 0 52 0 53 -46 78 -26 14 -49 26 -53 25 -3 0 -25 -13
-48 -27z"/>
<path d="M2433 624 c-42 -25 -43 -26 -43 -79 0 -53 1 -55 44 -80 l43 -25 47
26 c46 26 46 26 46 79 0 52 -1 54 -44 79 -25 14 -46 26 -48 26 -2 0 -22 -12
-45 -26z"/>
<path d="M2633 624 c-42 -25 -43 -27 -43 -79 0 -52 1 -53 45 -79 l45 -27 45
27 c44 26 45 27 45 80 0 52 -1 54 -43 79 -24 14 -46 25 -48 25 -2 -1 -23 -12
-46 -26z"/>
<path d="M2833 623 c-42 -24 -43 -26 -43 -76 0 -51 1 -53 46 -80 l47 -28 46
28 c42 26 46 33 49 72 2 24 -2 49 -9 57 -11 14 -84 56 -91 53 -2 -1 -22 -12
-45 -26z"/>
<path d="M3037 623 l-48 -27 3 -50 c3 -48 5 -52 49 -79 l46 -28 47 28 c45 27
46 29 46 80 0 51 -1 52 -46 77 -26 14 -47 26 -48 26 0 0 -23 -12 -49 -27z"/>
<path d="M3243 624 c-42 -25 -43 -26 -43 -79 0 -54 1 -54 45 -80 l44 -26 46
26 c44 27 45 28 45 80 0 52 -1 54 -44 79 -25 14 -46 26 -48 26 -2 0 -22 -12
-45 -26z"/>
<path d="M3443 624 c-42 -25 -43 -27 -43 -79 0 -52 1 -53 45 -80 l46 -26 44
26 c44 26 45 26 45 80 0 53 -1 55 -43 80 -24 14 -46 25 -48 25 -2 -1 -23 -12
-46 -26z"/>
<path d="M3643 623 c-42 -24 -43 -26 -43 -76 0 -51 1 -53 46 -80 l46 -27 49
26 c49 27 49 27 49 79 0 52 0 52 -49 78 -27 15 -50 27 -52 26 -2 -1 -23 -12
-46 -26z"/>
<path d="M3855 627 c-38 -22 -40 -25 -43 -79 l-3 -57 44 -25 44 -26 47 26 c46
26 46 26 46 79 0 53 0 53 -46 79 -26 14 -47 26 -48 26 0 0 -19 -11 -41 -23z"/>
<path d="M4053 624 c-42 -25 -43 -26 -43 -79 0 -52 1 -53 45 -79 l45 -27 45
27 c44 26 45 27 45 79 0 52 -1 54 -44 79 -25 14 -46 26 -48 26 -2 0 -22 -12
-45 -26z"/>
<path d="M4253 624 c-42 -25 -43 -27 -43 -79 0 -53 0 -53 46 -79 l47 -26 43
25 c43 25 44 27 44 80 0 53 -1 55 -43 80 -24 14 -46 25 -48 25 -2 -1 -23 -12
-46 -26z"/>
<path d="M4453 623 c-42 -24 -43 -26 -43 -77 0 -53 0 -53 48 -79 43 -23 49
-24 75 -11 26 14 27 18 27 88 0 67 -2 75 -25 90 -30 20 -30 20 -82 -11z"/>
<path d="M98 448 c-37 -21 -38 -24 -38 -78 0 -55 1 -57 39 -78 49 -28 53 -27
101 3 38 24 40 28 40 75 0 47 -2 51 -40 75 -48 30 -55 30 -102 3z"/>
<path d="M298 447 c-36 -21 -38 -24 -38 -77 0 -55 0 -55 45 -80 l45 -25 45 25
c45 25 45 25 45 80 0 54 -1 56 -40 78 -48 27 -55 27 -102 -1z"/>
<path d="M498 444 c-36 -23 -38 -28 -38 -74 0 -47 2 -51 40 -75 48 -30 52 -31
101 -3 38 21 39 23 39 78 0 55 -1 57 -39 78 -48 27 -57 27 -103 -4z"/>
<path d="M705 447 c-39 -22 -40 -24 -40 -77 l0 -55 46 -24 46 -24 44 24 c44
24 44 25 44 79 0 53 -1 55 -40 77 -22 12 -44 23 -50 23 -5 0 -28 -11 -50 -23z"/>
<path d="M908 448 c-37 -21 -38 -24 -38 -79 l0 -56 44 -24 44 -23 46 25 46 24
0 55 c0 55 0 55 -42 78 -52 27 -54 27 -100 0z"/>
<path d="M1108 447 c-36 -21 -38 -24 -38 -77 0 -55 0 -55 45 -80 l45 -25 45
25 c45 25 45 25 45 80 0 54 -1 56 -40 78 -48 27 -55 27 -102 -1z"/>
<path d="M1308 444 c-36 -23 -38 -28 -38 -74 0 -47 2 -51 40 -75 49 -31 53
-31 107 0 41 25 43 28 43 75 0 47 -2 50 -43 75 -53 30 -62 30 -109 -1z"/>
<path d="M1513 444 c-41 -24 -43 -27 -43 -74 0 -48 1 -50 46 -76 l47 -28 46
25 46 24 0 55 c0 53 -1 55 -40 77 -50 28 -51 28 -102 -3z"/>
<path d="M1718 447 c-36 -21 -38 -24 -38 -77 0 -55 0 -56 44 -80 l44 -24 46
25 46 24 0 55 c0 55 0 55 -42 78 -52 27 -53 27 -100 -1z"/>
<path d="M1918 446 c-37 -20 -38 -23 -38 -76 l0 -55 46 -24 46 -25 44 24 c44
24 44 25 44 80 0 54 -1 56 -40 78 -46 26 -54 26 -102 -2z"/>
<path d="M2125 447 c-39 -22 -40 -24 -40 -77 l0 -55 46 -24 46 -25 47 28 c45
26 46 28 46 76 0 47 -2 50 -43 75 -53 30 -52 30 -102 2z"/>
<path d="M2328 448 c-37 -21 -38 -24 -38 -78 0 -55 1 -57 39 -78 49 -28 53
-27 101 3 38 24 40 28 40 75 0 47 -2 51 -40 75 -48 30 -55 30 -102 3z"/>
<path d="M2528 447 c-36 -21 -38 -24 -38 -77 0 -55 0 -55 45 -80 l45 -25 45
25 c45 25 45 25 45 80 0 54 -1 56 -40 78 -48 27 -55 27 -102 -1z"/>
<path d="M2728 446 c-37 -20 -38 -23 -38 -76 l0 -55 46 -24 46 -25 44 23 44
24 0 57 c0 55 -1 57 -39 78 -46 26 -55 26 -103 -2z"/>
<path d="M2935 447 c-39 -22 -40 -24 -40 -77 l0 -55 46 -24 46 -24 44 24 c44
24 44 25 44 79 0 53 -1 55 -40 77 -22 12 -44 23 -50 23 -5 0 -28 -11 -50 -23z"/>
<path d="M3138 448 c-37 -21 -38 -24 -38 -78 0 -55 1 -57 39 -78 49 -28 53
-27 101 3 38 24 40 28 40 75 0 47 -2 51 -40 75 -48 30 -55 30 -102 3z"/>
<path d="M3338 447 c-36 -21 -38 -24 -38 -77 0 -55 0 -55 45 -80 l45 -25 45
25 c45 25 45 25 45 80 0 54 -1 56 -40 78 -48 27 -55 27 -102 -1z"/>
<path d="M3538 444 c-36 -23 -38 -28 -38 -74 0 -47 2 -51 40 -75 48 -30 52
-31 101 -3 38 21 39 23 39 78 0 55 -1 57 -39 78 -48 27 -57 27 -103 -4z"/>
<path d="M3745 447 c-39 -22 -40 -24 -40 -77 l0 -55 46 -24 46 -24 44 24 c44
24 44 25 44 79 0 53 -1 55 -40 77 -22 12 -44 23 -50 23 -5 0 -28 -11 -50 -23z"/>
<path d="M3948 448 c-37 -21 -38 -24 -38 -79 l0 -56 44 -24 44 -23 46 25 46
24 0 55 c0 55 0 55 -42 78 -52 27 -54 27 -100 0z"/>
<path d="M4148 447 c-36 -21 -38 -24 -38 -77 0 -55 0 -55 45 -80 l45 -25 45
25 c45 25 45 25 45 80 0 54 -1 56 -40 78 -48 27 -55 27 -102 -1z"/>
<path d="M4348 444 c-36 -23 -38 -28 -38 -74 0 -47 2 -51 40 -75 49 -31 53
-31 107 0 41 25 43 28 43 75 0 47 -2 50 -43 75 -53 30 -62 30 -109 -1z"/>
<path d="M4533 433 c-18 -12 -23 -25 -23 -63 0 -40 4 -50 25 -64 l25 -16 0 80
c0 44 -1 80 -2 79 -2 0 -13 -7 -25 -16z"/>
<path d="M0 370 c0 -70 5 -81 28 -58 16 16 16 100 0 116 -23 23 -28 12 -28
-58z"/>
<path d="M23 288 c-21 -10 -23 -18 -23 -93 0 -77 1 -82 25 -93 20 -9 31 -7 70
14 44 25 45 26 45 77 0 51 -1 53 -45 80 -25 15 -47 27 -48 26 -1 0 -12 -5 -24
-11z"/>
<path d="M203 274 c-42 -25 -43 -27 -43 -80 0 -52 1 -54 45 -79 l44 -26 46 26
c44 27 45 28 45 80 0 52 -1 54 -44 79 -25 14 -46 26 -48 26 -2 -1 -22 -12 -45
-26z"/>
<path d="M403 274 c-42 -25 -43 -27 -43 -79 0 -52 1 -53 45 -80 l46 -26 44 26
c44 26 45 26 45 80 0 53 -1 55 -43 80 -24 14 -46 25 -48 25 -2 -1 -23 -12 -46
-26z"/>
<path d="M603 272 c-42 -26 -43 -28 -43 -79 0 -51 1 -52 46 -77 l46 -26 49 27
c49 26 49 26 49 78 0 52 0 52 -49 78 -27 15 -50 27 -52 26 -2 0 -23 -13 -46
-27z"/>
<path d="M812 274 l-43 -26 3 -56 c3 -55 4 -57 44 -79 l41 -23 47 26 c46 26
46 26 46 79 0 53 0 53 -46 79 -26 14 -47 26 -48 26 0 0 -20 -12 -44 -26z"/>
<path d="M1013 274 c-42 -25 -43 -27 -43 -80 0 -52 1 -54 45 -79 l44 -26 46
26 c44 27 45 28 45 80 0 52 -1 54 -44 79 -25 14 -46 26 -48 26 -2 -1 -22 -12
-45 -26z"/>
<path d="M1213 273 c-42 -24 -43 -26 -43 -78 0 -52 1 -53 45 -80 l46 -26 44
26 c44 26 45 26 45 80 0 53 -1 55 -43 80 -24 14 -46 25 -48 24 -2 -1 -23 -12
-46 -26z"/>
<path d="M1417 272 l-48 -26 3 -54 c3 -52 4 -54 49 -78 l46 -26 46 29 c46 27
47 29 47 79 0 50 0 51 -48 77 l-47 26 -48 -27z"/>
<path d="M1622 274 l-43 -26 3 -56 c3 -55 4 -57 45 -80 l42 -23 46 26 c44 27
45 28 45 80 0 53 0 53 -46 79 -26 14 -47 26 -48 26 0 0 -20 -12 -44 -26z"/>
<path d="M1823 274 c-42 -25 -43 -27 -43 -80 0 -53 1 -53 45 -80 l45 -26 45
26 c44 27 45 27 45 80 0 53 -1 54 -44 80 -25 14 -46 26 -48 26 -2 -1 -22 -12
-45 -26z"/>
<path d="M2023 273 c-42 -24 -43 -26 -43 -78 0 -52 1 -53 45 -80 l46 -26 42
23 c41 23 42 25 45 80 l3 57 -44 25 c-24 14 -46 26 -48 25 -2 -1 -23 -12 -46
-26z"/>
<path d="M2227 273 c-47 -26 -47 -27 -47 -77 0 -50 1 -52 47 -79 l46 -29 46
26 c45 24 46 26 49 79 l3 53 -48 27 -48 26 -48 -26z"/>
<path d="M2433 274 c-42 -25 -43 -26 -43 -79 0 -54 1 -54 45 -80 l44 -26 46
26 c44 27 45 28 45 80 0 53 0 53 -46 79 -26 14 -47 26 -48 26 0 0 -20 -12 -43
-26z"/>
<path d="M2633 274 c-42 -25 -43 -27 -43 -79 0 -52 1 -53 45 -80 l46 -26 44
26 c44 25 45 27 45 79 0 53 -1 54 -44 80 -25 14 -46 26 -48 26 -2 -1 -22 -12
-45 -26z"/>
<path d="M2833 272 c-42 -26 -43 -28 -43 -79 0 -51 1 -52 46 -77 44 -24 47
-25 77 -10 56 28 67 44 67 91 0 41 -3 45 -47 73 -26 17 -49 30 -52 29 -4 0
-25 -13 -48 -27z"/>
<path d="M3037 270 c-45 -29 -47 -31 -47 -78 0 -48 1 -49 49 -75 l49 -27 46
26 c45 25 46 26 46 77 0 51 -1 53 -45 80 -25 15 -47 27 -48 27 -2 0 -24 -13
-50 -30z"/>
<path d="M3243 274 c-42 -25 -43 -27 -43 -80 0 -52 1 -54 45 -79 l44 -26 46
26 c44 27 45 28 45 80 0 52 -1 54 -44 79 -25 14 -46 26 -48 26 -2 -1 -22 -12
-45 -26z"/>
<path d="M3443 274 c-42 -25 -43 -27 -43 -79 0 -52 1 -53 45 -80 l46 -26 44
26 c44 26 45 26 45 80 0 53 -1 55 -43 80 -24 14 -46 25 -48 25 -2 -1 -23 -12
-46 -26z"/>
<path d="M3643 272 c-42 -26 -43 -28 -43 -79 0 -51 1 -52 46 -77 l46 -26 49
27 c49 26 49 26 49 78 0 52 0 52 -49 78 -27 15 -50 27 -52 26 -2 0 -23 -13
-46 -27z"/>
<path d="M3852 274 l-43 -26 3 -56 c3 -55 4 -57 44 -79 l41 -23 47 26 c46 26
46 26 46 79 0 53 0 53 -46 79 -26 14 -47 26 -48 26 0 0 -20 -12 -44 -26z"/>
<path d="M4053 274 c-42 -25 -43 -27 -43 -80 0 -52 1 -54 45 -79 l44 -26 46
26 c44 27 45 28 45 80 0 52 -1 54 -44 79 -25 14 -46 26 -48 26 -2 -1 -22 -12
-45 -26z"/>
<path d="M4253 273 c-42 -24 -43 -26 -43 -78 0 -52 1 -53 45 -80 l46 -26 44
26 c44 26 45 26 45 80 0 53 -1 55 -43 80 -24 14 -46 25 -48 24 -2 -1 -23 -12
-46 -26z"/>
<path d="M4457 272 l-48 -26 3 -54 c3 -52 4 -54 49 -79 45 -24 48 -24 73 -8
24 16 26 23 26 91 0 70 -1 74 -28 88 -26 13 -32 12 -75 -12z"/>
<path d="M98 97 c-33 -19 -38 -27 -38 -59 l0 -38 91 0 90 0 -3 37 c-3 32 -9
41 -43 60 -49 28 -51 28 -97 0z"/>
<path d="M298 96 c-33 -18 -38 -26 -38 -58 l0 -38 90 0 90 0 0 38 c0 33 -4 39
-42 60 -51 26 -52 26 -100 -2z"/>
<path d="M505 97 c-34 -19 -40 -28 -43 -60 l-3 -37 90 0 91 0 0 38 c0 33 -5
40 -40 60 -48 27 -46 27 -95 -1z"/>
<path d="M703 94 c-37 -22 -43 -30 -43 -60 l0 -34 95 0 95 0 0 35 c0 30 -5 37
-43 60 -24 14 -48 25 -53 25 -5 0 -28 -12 -51 -26z"/>
<path d="M908 97 c-33 -19 -38 -27 -38 -59 l0 -38 90 0 90 0 0 35 c0 30 -6 38
-40 60 -48 30 -55 30 -102 2z"/>
<path d="M1108 96 c-33 -18 -38 -26 -38 -58 l0 -38 90 0 90 0 0 38 c0 33 -5
40 -40 60 -46 26 -54 26 -102 -2z"/>
<path d="M1315 97 c-34 -19 -40 -28 -43 -60 l-3 -37 95 0 96 0 0 35 c0 30 -5
37 -43 60 -53 30 -52 30 -102 2z"/>
<path d="M1513 94 c-37 -22 -43 -30 -43 -60 l0 -34 96 0 95 0 -3 37 c-3 32 -9
41 -43 60 -50 28 -51 28 -102 -3z"/>
<path d="M1718 97 c-33 -19 -38 -27 -38 -59 l0 -38 90 0 90 0 0 38 c0 33 -4
39 -42 60 -52 27 -53 27 -100 -1z"/>
<path d="M1918 94 c-32 -20 -38 -30 -38 -59 l0 -35 90 0 90 0 0 38 c0 33 -5
40 -40 60 -48 27 -56 27 -102 -4z"/>
<path d="M2123 94 c-37 -22 -43 -30 -43 -60 l0 -34 95 0 95 0 0 35 c0 30 -5
37 -43 60 -24 14 -48 25 -53 25 -5 0 -28 -12 -51 -26z"/>
<path d="M2328 97 c-33 -19 -38 -27 -38 -59 l0 -38 91 0 90 0 -3 37 c-3 32 -9
41 -43 60 -49 28 -51 28 -97 0z"/>
<path d="M2528 96 c-33 -18 -38 -26 -38 -58 l0 -38 90 0 90 0 0 38 c0 33 -4
39 -42 60 -51 26 -52 26 -100 -2z"/>
<path d="M2735 97 c-34 -19 -40 -28 -43 -60 l-3 -37 90 0 91 0 0 38 c0 33 -5
40 -40 60 -48 27 -46 27 -95 -1z"/>
<path d="M2933 94 c-37 -22 -43 -30 -43 -60 l0 -34 95 0 95 0 0 35 c0 30 -5
37 -43 60 -24 14 -48 25 -53 25 -5 0 -28 -12 -51 -26z"/>
<path d="M3138 97 c-33 -19 -38 -27 -38 -59 l0 -38 91 0 90 0 -3 37 c-3 32 -9
41 -43 60 -49 28 -51 28 -97 0z"/>
<path d="M3338 96 c-33 -18 -38 -26 -38 -58 l0 -38 90 0 90 0 0 38 c0 33 -4
39 -42 60 -51 26 -52 26 -100 -2z"/>
<path d="M3545 97 c-34 -19 -40 -28 -43 -60 l-3 -37 90 0 91 0 0 38 c0 33 -5
40 -40 60 -48 27 -46 27 -95 -1z"/>
<path d="M3743 94 c-37 -22 -43 -30 -43 -60 l0 -34 95 0 95 0 0 35 c0 30 -5
37 -43 60 -24 14 -48 25 -53 25 -5 0 -28 -12 -51 -26z"/>
<path d="M3948 97 c-33 -19 -38 -27 -38 -59 l0 -38 90 0 90 0 0 35 c0 30 -6
38 -40 60 -48 30 -55 30 -102 2z"/>
<path d="M4148 96 c-33 -18 -38 -26 -38 -58 l0 -38 90 0 90 0 0 38 c0 33 -5
40 -40 60 -46 26 -54 26 -102 -2z"/>
<path d="M4355 97 c-34 -19 -40 -28 -43 -60 l-3 -37 95 0 96 0 0 35 c0 30 -5
37 -43 60 -53 30 -52 30 -102 2z"/>
<path d="M4533 83 c-16 -11 -23 -26 -23 -49 0 -30 3 -34 25 -34 23 0 25 3 25
50 0 28 -1 50 -2 49 -2 0 -13 -7 -25 -16z"/>
<path d="M0 45 c0 -38 3 -45 20 -45 29 0 29 65 0 80 -19 10 -20 8 -20 -35z"/>
</g>
</svg>
